<svg xmlns="http://www.w3.org/2000/svg" xmlns:xlink="http://www.w3.org/1999/xlink" width="119.695" height="139.738" viewBox="0 0 119.695 139.738">
  <defs>
    <clipPath id="clip-path">
      <path id="Trazado_665633" data-name="Trazado 665633" d="M162.988,93.882c-17.2,9.156-30.526,26.3-33.164,45.066-1.63,11.615,1.047,22.658,6.511,33.2,9.78,18.861,25.629,30.977,31.027,44.359l.005,0a11.009,11.009,0,0,0,2.082,3.114c7.339,7.878,25.855,9.483,36.857,3.129a14.322,14.322,0,0,0,6.032-6.06,40.571,40.571,0,0,1,2.118-4.315c5.986-10.706,16.909-21.066,25.16-35.246,5.924-10.179,9.715-21.151,9.413-32.74-.529-20.318-13.468-39.564-31.384-49.807l-.039-.023a55.9,55.9,0,0,0-27.813-7.628,56.731,56.731,0,0,0-26.8,6.959" fill="#25ffff"/>
    </clipPath>
  </defs>
  <g id="Grupo_116082" data-name="Grupo 116082" transform="translate(-129.35 -86.923)" opacity="0.5">
    <g id="Grupo_115983" data-name="Grupo 115983" clip-path="url(#clip-path)">
      <rect id="Rectángulo_40450" data-name="Rectángulo 40450" width="122.655" height="143.465" transform="translate(126.67 86.938) rotate(-0.614)" fill="#25ffff"/>
    </g>
  </g>
</svg>
