<svg xmlns="http://www.w3.org/2000/svg" width="242" height="58.538" viewBox="0 0 242 58.538">
  <g id="Grupo_116085" data-name="Grupo 116085" transform="translate(13995.615 5562)">
    <rect id="Rectángulo_32755" data-name="Rectángulo 32755" width="242" height="58.538" rx="13" transform="translate(-13995.615 -5562)" fill="#fff"/>
    <path id="Trazado_665880" data-name="Trazado 665880" d="M5.684,13.136l-.337,1.772a6.2,6.2,0,0,1,4.819-2.051,4.89,4.89,0,0,1,2.556.688,3.377,3.377,0,0,1,1.443,1.86,6.544,6.544,0,0,1,5.259-2.549,4.191,4.191,0,0,1,3.5,1.6,5.7,5.7,0,0,1,.835,4.131L22.017,29H19.38l1.729-10.444a5.518,5.518,0,0,0,0-1.392q-.278-1.992-2.607-2.036a4,4,0,0,0-2.629.9,4.167,4.167,0,0,0-1.516,2.439L12.554,29H9.888l1.758-10.43a3.349,3.349,0,0,0-.491-2.5,2.582,2.582,0,0,0-2.117-.908A4.34,4.34,0,0,0,5.1,17.413L3.091,29H.439L3.193,13.15Z" transform="translate(-13897.615 -5553.688)" fill="#12263f"/>
    <path id="Trazado_665881" data-name="Trazado 665881" d="M14.561,17.076H2.7l.41-2.358h11.88Zm-1.055,6.079H1.641l.41-2.344h11.88Z" transform="translate(-13924.615 -5551.696)" fill="#12263f"/>
    <path id="Trazado_665882" data-name="Trazado 665882" d="M5.068,20.65,3.618,29H.864L4.57,7.672l7.119.015a6.961,6.961,0,0,1,5.083,1.75,5.507,5.507,0,0,1,1.538,4.651,6.64,6.64,0,0,1-2.439,4.819,8.846,8.846,0,0,1-5.735,1.758Zm.4-2.3,4.746.015a5.773,5.773,0,0,0,3.677-1.128A4.513,4.513,0,0,0,15.571,14.1a3.536,3.536,0,0,0-.747-2.922A3.76,3.76,0,0,0,11.968,10L6.914,9.986ZM35.625,22.2a8.5,8.5,0,0,1-3,5.244,8.393,8.393,0,0,1-5.706,1.846,6.644,6.644,0,0,1-3.457-.974,6.155,6.155,0,0,1-2.3-2.681,10.012,10.012,0,0,1-.908-3.875,12.418,12.418,0,0,1,.1-2.344l.249-1.758a13.267,13.267,0,0,1,3.376-7.581,8.521,8.521,0,0,1,6.541-2.7A6.38,6.38,0,0,1,35.288,9.32a7.719,7.719,0,0,1,1.86,5.222H34.409q-.19-4.482-3.516-4.834l-.483-.029a5.661,5.661,0,0,0-4.622,2.058,11.142,11.142,0,0,0-2.4,5.823l-.322,2.212-.088,1.289a7.251,7.251,0,0,0,.959,4.285,3.618,3.618,0,0,0,3.113,1.648,5.483,5.483,0,0,0,3.684-1.069,7.115,7.115,0,0,0,2.219-3.677ZM41.4,29H38.657L42.363,7.672H45.1Z" transform="translate(-13825.615 -5551.316)" fill="#12263f"/>
    <path id="Trazado_665883" data-name="Trazado 665883" d="M14.3,19.142H5.332L4.014,26.7h10.43l-.41,2.3H.864L4.57,7.672H17.593l-.41,2.3H6.914l-1.187,6.87h8.965Z" transform="translate(-13970.615 -5552.072)" fill="#12263f"/>
    <path id="Trazado_665884" data-name="Trazado 665884" d="M5.957,22.413a3.352,3.352,0,0,0,2.136-.69A3.28,3.28,0,0,0,9.338,19.85l2.087-.012a4.71,4.71,0,0,1-.995,2.271,5.552,5.552,0,0,1-2.045,1.6,5.548,5.548,0,0,1-2.527.537,4.714,4.714,0,0,1-2.789-.861,4.818,4.818,0,0,1-1.678-2.332,7.768,7.768,0,0,1-.366-3.363l.061-.61A8.758,8.758,0,0,1,2.2,13.673a6.422,6.422,0,0,1,2.295-2.338,5.7,5.7,0,0,1,3.125-.787,4.464,4.464,0,0,1,3.32,1.392,4.813,4.813,0,0,1,1.245,3.406l-2.063-.012A3.17,3.17,0,0,0,9.4,13.24a2.511,2.511,0,0,0-1.88-.848,3.522,3.522,0,0,0-2.863,1.282,6.714,6.714,0,0,0-1.422,3.687l-.037.317a10.587,10.587,0,0,0-.024,1.611,3.68,3.68,0,0,0,.806,2.258A2.588,2.588,0,0,0,5.957,22.413Z" transform="translate(-13870.615 -5547.008)" fill="#12263f"/>
    <path id="Trazado_665885" data-name="Trazado 665885" d="M5.957,22.413a3.352,3.352,0,0,0,2.136-.69A3.28,3.28,0,0,0,9.338,19.85l2.087-.012a4.71,4.71,0,0,1-.995,2.271,5.552,5.552,0,0,1-2.045,1.6,5.548,5.548,0,0,1-2.527.537,4.714,4.714,0,0,1-2.789-.861,4.818,4.818,0,0,1-1.678-2.332,7.768,7.768,0,0,1-.366-3.363l.061-.61A8.758,8.758,0,0,1,2.2,13.673a6.422,6.422,0,0,1,2.295-2.338,5.7,5.7,0,0,1,3.125-.787,4.464,4.464,0,0,1,3.32,1.392,4.813,4.813,0,0,1,1.245,3.406l-2.063-.012A3.17,3.17,0,0,0,9.4,13.24a2.511,2.511,0,0,0-1.88-.848,3.522,3.522,0,0,0-2.863,1.282,6.714,6.714,0,0,0-1.422,3.687l-.037.317a10.587,10.587,0,0,0-.024,1.611,3.68,3.68,0,0,0,.806,2.258A2.588,2.588,0,0,0,5.957,22.413Z" transform="translate(-13951.615 -5547.008)" fill="#12263f"/>
    <path id="Trazado_665886" data-name="Trazado 665886" d="M5.625,14.535,1.567,13.218l1-2.107,4.072,1.653.747-5.092h2.2L8.555,12.706l4.438-1.58.278,2.327L8.657,14.784l2.153,4.028L8.936,20.1,7.017,15.853l-3.252,4.1-1.67-1.436Z" transform="translate(-13847.615 -5547.095)" fill="#12263f"/>
  </g>
</svg>
