<svg xmlns="http://www.w3.org/2000/svg" width="514.834" height="167" viewBox="0 0 514.834 167">
  <g id="Grupo_116084" data-name="Grupo 116084" transform="translate(13835.449 6036)">
    <rect id="Rectángulo_32751" data-name="Rectángulo 32751" width="514.833" height="167" rx="17" transform="translate(-13835.449 -6036)" fill="#fff"/>
    <g id="Grupo_115859" data-name="Grupo 115859" transform="translate(-392.271)">
      <path id="Trazado_665866" data-name="Trazado 665866" d="M5.405,15.084a6.141,6.141,0,0,1,4.79-2.212A3.859,3.859,0,0,1,13.5,14.4a6.032,6.032,0,0,1,.8,4.211L12.568,29H9.917L11.66,18.57a5.565,5.565,0,0,0,.015-1.333,2.19,2.19,0,0,0-2.417-2.095q-2.432-.059-4.189,2.549L3.105,29H.454L4.365,6.5H7.017Z" transform="translate(-13078.197 -5965)" fill="#12263f"/>
      <path id="Trazado_665867" data-name="Trazado 665867" d="M14.3,19.142H5.332L4.014,26.7h10.43l-.41,2.3H.864L4.57,7.672H17.593l-.41,2.3H6.914l-1.187,6.87h8.965Z" transform="translate(-13416.344 -5965)" fill="#12263f"/>
      <path id="Trazado_665868" data-name="Trazado 665868" d="M5.405,15.084a6.141,6.141,0,0,1,4.79-2.212A3.859,3.859,0,0,1,13.5,14.4a6.032,6.032,0,0,1,.8,4.211L12.568,29H9.917L11.66,18.57a5.565,5.565,0,0,0,.015-1.333,2.19,2.19,0,0,0-2.417-2.095q-2.432-.059-4.189,2.549L3.105,29H.454L4.365,6.5H7.017Z" transform="translate(-13008.197 -5965)" fill="#12263f"/>
      <path id="Trazado_665869" data-name="Trazado 665869" d="M7.324,21.046H.366l.4-2.212H7.72Z" transform="translate(-13034.197 -5965)" fill="#12263f"/>
      <path id="Trazado_665870" data-name="Trazado 665870" d="M14.561,17.076H2.7l.41-2.358h11.88Zm-1.055,6.079H1.641l.41-2.344h11.88Z" transform="translate(-13377.344 -5967)" fill="#12263f"/>
      <path id="Trazado_665871" data-name="Trazado 665871" d="M10.679,29H7.954V10.938L2.49,12.945V10.484l7.764-2.915h.425Zm21.284-7.954H24.814V18.834h7.148Z" transform="translate(-13257.344 -5967)" fill="#12263f"/>
      <path id="Trazado_665872" data-name="Trazado 665872" d="M10.679,29H7.954V10.938L2.49,12.945V10.484l7.764-2.915h.425Zm21.313-9.1q0,4.761-1.626,7.075a5.783,5.783,0,0,1-5.083,2.314,5.825,5.825,0,0,1-5.054-2.263q-1.641-2.263-1.7-6.76V16.651q0-4.7,1.626-6.987a5.827,5.827,0,0,1,5.1-2.285,5.88,5.88,0,0,1,5.068,2.2q1.626,2.2,1.67,6.8ZM29.282,16.2a9.93,9.93,0,0,0-.967-5.017,3.328,3.328,0,0,0-3.062-1.575,3.284,3.284,0,0,0-3.032,1.567,9.7,9.7,0,0,0-.981,4.819v4.336a10.089,10.089,0,0,0,1,5.1,3.321,3.321,0,0,0,3.04,1.648,3.276,3.276,0,0,0,2.981-1.553,9.724,9.724,0,0,0,1.018-4.893ZM48.838,19.9q0,4.761-1.626,7.075a5.783,5.783,0,0,1-5.083,2.314,5.825,5.825,0,0,1-5.054-2.263q-1.641-2.263-1.7-6.76V16.651q0-4.7,1.626-6.987a5.827,5.827,0,0,1,5.1-2.285,5.88,5.88,0,0,1,5.068,2.2q1.626,2.2,1.67,6.8ZM46.128,16.2a9.93,9.93,0,0,0-.967-5.017A3.328,3.328,0,0,0,42.1,9.605a3.284,3.284,0,0,0-3.032,1.567,9.7,9.7,0,0,0-.981,4.819v4.336a10.089,10.089,0,0,0,1,5.1,3.321,3.321,0,0,0,3.04,1.648,3.276,3.276,0,0,0,2.981-1.553,9.724,9.724,0,0,0,1.018-4.893Z" transform="translate(-13187.344 -5945)" fill="#12263f"/>
      <path id="Trazado_665873" data-name="Trazado 665873" d="M5.684,13.136l-.337,1.772a6.2,6.2,0,0,1,4.819-2.051,4.89,4.89,0,0,1,2.556.688,3.377,3.377,0,0,1,1.443,1.86,6.544,6.544,0,0,1,5.259-2.549,4.191,4.191,0,0,1,3.5,1.6,5.7,5.7,0,0,1,.835,4.131L22.017,29H19.38l1.729-10.444a5.518,5.518,0,0,0,0-1.392q-.278-1.992-2.607-2.036a4,4,0,0,0-2.629.9,4.167,4.167,0,0,0-1.516,2.439L12.554,29H9.888l1.758-10.43a3.349,3.349,0,0,0-.491-2.5,2.582,2.582,0,0,0-2.117-.908A4.34,4.34,0,0,0,5.1,17.413L3.091,29H.439L3.193,13.15Z" transform="translate(-13356.344 -5971)" fill="#12263f"/>
      <path id="Trazado_665874" data-name="Trazado 665874" d="M7.69,7.35a3.674,3.674,0,0,1,2.82,1.3,4.243,4.243,0,0,1,.93,3.127L11.353,12.9a5.008,5.008,0,0,1-1.545,3.208A4.242,4.242,0,0,1,6.65,17.3a3.625,3.625,0,0,1-2.842-1.289A4.2,4.2,0,0,1,2.856,12.9l.088-.937A5.093,5.093,0,0,1,4.475,8.587,4.409,4.409,0,0,1,7.69,7.35ZM4.834,12.925a2.843,2.843,0,0,0,.432,1.887,1.747,1.747,0,0,0,1.443.727,2.273,2.273,0,0,0,1.736-.712,3.265,3.265,0,0,0,.9-1.931l.132-1.145A2.867,2.867,0,0,0,9.1,9.886a1.69,1.69,0,0,0-1.465-.778,2.3,2.3,0,0,0-1.758.719,3.278,3.278,0,0,0-.908,1.938Zm10.84,6.437a3.678,3.678,0,0,1,2.856,1.311,4.242,4.242,0,0,1,.923,3.1l-.088.981A5.138,5.138,0,0,1,17.849,28.1a4.235,4.235,0,0,1-3.2,1.223,3.651,3.651,0,0,1-2.834-1.274,4.2,4.2,0,0,1-.959-3.135l.088-1a5.128,5.128,0,0,1,1.494-3.311A4.348,4.348,0,0,1,15.674,19.361Zm-2.842,5.575a2.931,2.931,0,0,0,.417,1.887,1.723,1.723,0,0,0,1.458.741,2.252,2.252,0,0,0,1.75-.719,3.344,3.344,0,0,0,.886-1.938l.132-1.16a2.837,2.837,0,0,0-.381-1.85,1.69,1.69,0,0,0-1.465-.778,2.291,2.291,0,0,0-1.772.719,3.308,3.308,0,0,0-.894,1.923ZM5.273,27.359,3.823,26.3,16.729,9.781l1.45,1.04Zm31-6.211a12.575,12.575,0,0,1-1.3,4.351,7.4,7.4,0,0,1-2.5,2.893,5.733,5.733,0,0,1-3.311.916,5.278,5.278,0,0,1-4.219-1.86l-1.421,7.646H20.859L24.668,13.15l2.4-.015-.293,1.772a6.013,6.013,0,0,1,4.7-2.051,4.421,4.421,0,0,1,3.56,1.685,7.414,7.414,0,0,1,1.348,4.482,15.774,15.774,0,0,1-.073,1.816Zm-2.607-.3.073-1.229a5.566,5.566,0,0,0-.813-3.27,2.859,2.859,0,0,0-2.351-1.192,4.7,4.7,0,0,0-3.97,2.18L25.269,24.93A3.316,3.316,0,0,0,28.477,27.1a4.17,4.17,0,0,0,3.362-1.543A8.957,8.957,0,0,0,33.662,20.848Zm14.795,6.584a6.121,6.121,0,0,1-4.731,1.86,3.95,3.95,0,0,1-3.362-1.626,6.219,6.219,0,0,1-.813-4.277l1.7-10.239H43.9L42.188,23.434a6.83,6.83,0,0,0-.029,1.26,2.622,2.622,0,0,0,.63,1.655,2.149,2.149,0,0,0,1.553.645,4.756,4.756,0,0,0,4.395-2.3L50.728,13.15h2.651L50.625,29h-2.5ZM64.438,15.567l-1.245-.132a4.537,4.537,0,0,0-4.014,2.3L57.231,29H54.58l2.754-15.85,2.563-.015-.4,1.846a4.739,4.739,0,0,1,3.97-2.153,4.863,4.863,0,0,1,1.26.22Zm.63,5.479a12.917,12.917,0,0,1,1.4-4.5,7.317,7.317,0,0,1,2.549-2.827,5.909,5.909,0,0,1,3.289-.872,4.876,4.876,0,0,1,4.16,2.08l.527-1.772h2.432L76.787,28.663a7.711,7.711,0,0,1-2.461,4.856A6.932,6.932,0,0,1,69.3,35.255a7.134,7.134,0,0,1-3.083-.762A5.863,5.863,0,0,1,63.9,32.486l1.509-1.626A4.756,4.756,0,0,0,72.4,31.988a5.442,5.442,0,0,0,1.736-3.164l.293-1.406A6,6,0,0,1,69.9,29.293a4.661,4.661,0,0,1-2.571-.8,4.855,4.855,0,0,1-1.692-2.183,8.923,8.923,0,0,1-.659-3.186A16.375,16.375,0,0,1,65.068,21.046Zm2.563,1.5a5.576,5.576,0,0,0,.725,3.241,2.74,2.74,0,0,0,2.322,1.207,4.8,4.8,0,0,0,4.087-2.326L76.011,17.4a3.331,3.331,0,0,0-3.179-2.253A4.113,4.113,0,0,0,69.294,16.9a9.147,9.147,0,0,0-1.633,4.9ZM90.469,29a3.55,3.55,0,0,1-.1-.835l.044-.835a6.5,6.5,0,0,1-4.629,1.963,4.736,4.736,0,0,1-3.406-1.326,4.012,4.012,0,0,1-1.194-3.245,4.879,4.879,0,0,1,2.2-3.933A9.385,9.385,0,0,1,88.8,19.376l2.769.015.176-1.26a2.9,2.9,0,0,0-.549-2.249,2.651,2.651,0,0,0-2.087-.857,4.088,4.088,0,0,0-2.41.667,2.837,2.837,0,0,0-1.282,1.838l-2.666.015a4.249,4.249,0,0,1,1.084-2.468,6.306,6.306,0,0,1,2.446-1.67,7.9,7.9,0,0,1,3.091-.564,5.255,5.255,0,0,1,3.853,1.5,4.657,4.657,0,0,1,1.157,3.831l-1.289,7.852-.073,1.128a5.529,5.529,0,0,0,.176,1.6L93.164,29Zm-4.16-2.051a4.624,4.624,0,0,0,2.41-.608,6.1,6.1,0,0,0,1.956-1.765l.571-3.267-2.007-.015a7.6,7.6,0,0,0-3.838.791,2.913,2.913,0,0,0-1.509,2.241,2.269,2.269,0,0,0,.52,1.853A2.477,2.477,0,0,0,86.309,26.949Z" transform="translate(-13210.344 -5988)" fill="#12263f"/>
      <path id="Trazado_665875" data-name="Trazado 665875" d="M5.176,20.912l4.761-10.12h2.332L5.615,24H3.931L1.343,10.792H3.516Z" transform="translate(-13060.197 -5952)" fill="#12263f"/>
      <path id="Trazado_665876" data-name="Trazado 665876" d="M5.176,20.912l4.761-10.12h2.332L5.615,24H3.931L1.343,10.792H3.516Z" transform="translate(-13398.344 -5952)" fill="#12263f"/>
      <path id="Trazado_665877" data-name="Trazado 665877" d="M6.213,7.594l-.562,3.2h2.4l-.305,1.746H5.359L3.979,20.753a2.864,2.864,0,0,0-.012.586A.931.931,0,0,0,5,22.291a6.328,6.328,0,0,0,1.074-.122l-.171,1.843a6.011,6.011,0,0,1-1.611.22,2.307,2.307,0,0,1-1.978-.97,3.754,3.754,0,0,1-.513-2.545l1.343-8.179H.818l.305-1.746H3.455l.562-3.2Z" transform="translate(-12990.197 -5952)" fill="#12263f"/>
      <path id="Trazado_665878" data-name="Trazado 665878" d="M5.176,20.912l4.761-10.12h2.332L5.615,24H3.931L1.343,10.792H3.516Z" transform="translate(-13329.344 -5958)" fill="#12263f"/>
      <path id="Trazado_665879" data-name="Trazado 665879" d="M2.4,25.924a1.586,1.586,0,0,1,1.187.439,1.514,1.514,0,0,1,.454,1.172A1.583,1.583,0,0,1,3.56,28.7a1.743,1.743,0,0,1-1.172.476,1.513,1.513,0,0,1-1.157-.4,1.513,1.513,0,0,1-.454-1.15,1.639,1.639,0,0,1,1.626-1.7Z" transform="translate(-13343.344 -5991)" fill="#12263f"/>
      <path id="Trazado_115165" data-name="Trazado 115165" d="M-9409.832-6245.213h103.5" transform="translate(-3802.344 300.213)" fill="none" stroke="#12263f" stroke-width="2"/>
      <path id="Trazado_158601" data-name="Trazado 158601" d="M-13291.118-5996.9s-47.748,54.86,0,98.543" transform="translate(33 -1)" fill="none" stroke="#12263f" stroke-width="2"/>
      <path id="Trazado_158603" data-name="Trazado 158603" d="M-13312.341-5996.9s47.751,54.86,0,98.543" transform="translate(204.753 -1)" fill="none" stroke="#12263f" stroke-width="2"/>
      <path id="Trazado_158602" data-name="Trazado 158602" d="M-13323-5994.213h-14.584V-5906H-13323" transform="translate(36)" fill="none" stroke="#11253e" stroke-width="2"/>
      <path id="Trazado_158604" data-name="Trazado 158604" d="M-13337.588-5994.213H-13323V-5906h-14.584" transform="translate(364.165)" fill="none" stroke="#11253e" stroke-width="2"/>
    </g>
  </g>
</svg>
