<svg xmlns="http://www.w3.org/2000/svg" xmlns:xlink="http://www.w3.org/1999/xlink" width="145" height="145" viewBox="0 0 145 145">
  <defs>
    <clipPath id="clip-path">
      <rect id="Rectángulo_32682" data-name="Rectángulo 32682" width="145" height="145" transform="translate(0 0)" fill="none"/>
    </clipPath>
  </defs>
  <g id="Grupo_83378" data-name="Grupo 83378" transform="translate(0.522 0.474)">
    <rect id="Rectángulo_32673" data-name="Rectángulo 32673" width="10" height="77" transform="translate(26.478 67.526)" fill="gray"/>
    <rect id="Rectángulo_32674" data-name="Rectángulo 32674" width="9" height="77" transform="translate(107.478 67.526)" fill="gray"/>
    <g id="Grupo_83377" data-name="Grupo 83377" transform="translate(-0.522 -0.474)">
      <g id="Grupo_83376" data-name="Grupo 83376" transform="translate(0 0)" clip-path="url(#clip-path)">
        <path id="Trazado_115148" data-name="Trazado 115148" d="M345.015,28.508v4.508H336V28.508a4.508,4.508,0,0,1,9.015,0" transform="translate(-240.825 -16.742)" fill="#998675"/>
        <path id="Trazado_115149" data-name="Trazado 115149" d="M345.015,124.508v4.508H336v-4.508a4.508,4.508,0,0,1,9.015,0" transform="translate(-240.825 -85.696)" fill="#998675"/>
        <path id="Trazado_115150" data-name="Trazado 115150" d="M153.014,124.508v4.508H144v-4.508a4.508,4.508,0,1,1,9.015,0" transform="translate(-102.915 -85.696)" fill="#998675"/>
        <path id="Trazado_115151" data-name="Trazado 115151" d="M153.014,28.508v4.508H144V28.508a4.508,4.508,0,1,1,9.015,0" transform="translate(-102.915 -16.742)" fill="#998675"/>
        <rect id="Rectángulo_32675" data-name="Rectángulo 32675" width="13" height="15" transform="translate(66 1)" fill="#999"/>
        <path id="Trazado_115152" data-name="Trazado 115152" d="M196.629,56v9.015H120V56h76.63Z" transform="translate(-85.677 -39.727)" fill="#ccc"/>
        <rect id="Rectángulo_32676" data-name="Rectángulo 32676" width="13" height="18" transform="translate(66 25)" fill="#999"/>
        <path id="Trazado_115153" data-name="Trazado 115153" d="M196.629,152v9.015H120V152h76.63Z" transform="translate(-85.677 -108.681)" fill="#ccc"/>
        <rect id="Rectángulo_32677" data-name="Rectángulo 32677" width="13" height="93" transform="translate(66 52)" fill="#999"/>
        <rect id="Rectángulo_32678" data-name="Rectángulo 32678" width="13" height="11" transform="translate(66 52)" fill="gray"/>
        <rect id="Rectángulo_32679" data-name="Rectángulo 32679" width="9" height="9" transform="translate(108 91)" fill="#666"/>
        <rect id="Rectángulo_32680" data-name="Rectángulo 32680" width="10" height="9" transform="translate(27 91)" fill="#666"/>
        <rect id="Rectángulo_32681" data-name="Rectángulo 32681" width="13" height="12" transform="translate(66 25)" fill="gray"/>
        <path id="Trazado_115154" data-name="Trazado 115154" d="M142.269,54.11c-17.124-2.141-30.26-12.912-30.39-13.018a1.966,1.966,0,0,0-1.442-.523h-4.508V38.315a6.761,6.761,0,0,0-13.523,0v2.254H81.137V27.046h29.3a2.255,2.255,0,0,0,2.254-2.254V20.219c5.328,3.6,15.961,9.685,29.02,11.316a1.992,1.992,0,0,0,.282.018,2.254,2.254,0,0,0,.277-4.49c-17.124-2.141-30.26-12.912-30.39-13.018a2.041,2.041,0,0,0-1.442-.523h-4.508V11.269a6.761,6.761,0,0,0-13.523,0v2.254H81.137V2.254A2.255,2.255,0,0,0,78.883,0H65.36a2.255,2.255,0,0,0-2.254,2.254V13.523H51.837V11.269a6.761,6.761,0,0,0-13.523,0v2.254H33.807a2.254,2.254,0,0,0-1.442.521c-.131.108-13.266,10.879-30.39,13.018a2.255,2.255,0,0,0,.277,4.492,1.971,1.971,0,0,0,.282-.018c13.059-1.632,23.692-7.715,29.02-11.316v4.573a2.255,2.255,0,0,0,2.254,2.254h29.3V40.569H51.837V38.315a6.761,6.761,0,1,0-13.523,0v2.254H33.807a2.311,2.311,0,0,0-1.442.521C32.233,41.2,19.1,51.968,1.974,54.107A2.255,2.255,0,0,0,2.251,58.6a1.971,1.971,0,0,0,.282-.018c13.059-1.632,23.692-7.715,29.02-11.316v4.573a2.255,2.255,0,0,0,2.254,2.254h29.3v87.9a2.254,2.254,0,1,0,4.508,0v-87.9h9.015v87.9a2.254,2.254,0,1,0,4.508,0v-87.9h29.3a2.255,2.255,0,0,0,2.254-2.254V47.265c5.328,3.6,15.961,9.685,29.02,11.316a1.992,1.992,0,0,0,.282.018,2.254,2.254,0,0,0,.277-4.49ZM96.913,38.315a2.254,2.254,0,0,1,4.508,0v2.254H96.913Zm0-27.046a2.254,2.254,0,0,1,4.508,0v2.254H96.913Zm-29.3-6.761h9.015v9.015H67.614ZM42.822,11.269a2.254,2.254,0,0,1,4.508,0v2.254H42.822ZM36.06,18.03h72.122v4.508H36.06Zm31.553,9.015h9.015V40.569H67.614ZM42.822,38.315a2.254,2.254,0,0,1,4.508,0v2.254H42.822Zm65.361,11.269H36.06V45.076h72.122Z" transform="translate(0.516 0.497)" fill="#252525"/>
        <path id="Trazado_115155" data-name="Trazado 115155" d="M349.3,245.523h13.523a2.254,2.254,0,0,0,0-4.508h-4.508v-2.254a2.254,2.254,0,1,0-4.508,0v2.254H349.3v-6.761A2.255,2.255,0,0,0,347.045,232h-9.015a2.255,2.255,0,0,0-2.254,2.254v6.761h-6.761v-2.254a2.254,2.254,0,1,0-4.508,0v2.254h-2.254a2.254,2.254,0,0,0,0,4.508h13.523v9.015h-6.761v-2.254a2.254,2.254,0,0,0-4.508,0v2.254h-2.254a2.254,2.254,0,0,0,0,4.508h13.523V308.63a2.254,2.254,0,1,0,4.508,0V259.046h4.508V308.63a2.254,2.254,0,1,0,4.508,0V259.046h13.523a2.254,2.254,0,1,0,0-4.508h-4.508v-2.254a2.254,2.254,0,0,0-4.508,0v2.254H349.3Zm-9.015-9.015h4.508v4.508h-4.508Zm0,9.015h4.508v9.015h-4.508Z" transform="translate(-229.332 -166.143)" fill="#252525"/>
        <path id="Trazado_115156" data-name="Trazado 115156" d="M61.3,245.523H74.821a2.254,2.254,0,0,0,0-4.508H72.568v-2.254a2.254,2.254,0,1,0-4.508,0v2.254H61.3v-6.761A2.255,2.255,0,0,0,59.045,232H50.029a2.255,2.255,0,0,0-2.254,2.254v6.761H43.268v-2.254a2.254,2.254,0,1,0-4.508,0v2.254H34.253a2.254,2.254,0,0,0,0,4.508H47.776v9.015H43.268v-2.254a2.254,2.254,0,0,0-4.508,0v2.254H34.253a2.254,2.254,0,1,0,0,4.508H47.776V308.63a2.254,2.254,0,1,0,4.508,0V259.046h4.508V308.63a2.254,2.254,0,1,0,4.508,0V259.046H74.821a2.254,2.254,0,1,0,0-4.508H72.568v-2.254a2.254,2.254,0,0,0-4.508,0v2.254H61.3Zm-9.015-9.015h4.508v4.508H52.283Zm0,9.015h4.508v9.015H52.283Z" transform="translate(-22.469 -166.143)" fill="#252525"/>
      </g>
    </g>
  </g>
</svg>
