<svg xmlns="http://www.w3.org/2000/svg" xmlns:xlink="http://www.w3.org/1999/xlink" width="100" height="100" viewBox="0 0 100 100">
  <defs>
    <clipPath id="clip-path">
      <rect id="Rectángulo_32881" data-name="Rectángulo 32881" width="100" height="94" transform="translate(0 0)" fill="none"/>
    </clipPath>
  </defs>
  <g id="Grupo_83602" data-name="Grupo 83602" transform="translate(-309 -5966)">
    <rect id="Rectángulo_32882" data-name="Rectángulo 32882" width="100" height="100" transform="translate(309 5966)" fill="none"/>
    <g id="Grupo_83601" data-name="Grupo 83601" transform="translate(309 5969.188)">
      <path id="Trazado_115903" data-name="Trazado 115903" d="M426.75,192v18.75H408V192h18.75Z" transform="translate(-328.313 -154.605)" fill="#f7664f"/>
      <g id="Grupo_83600" data-name="Grupo 83600" transform="translate(0 -0.187)">
        <g id="Grupo_83599" data-name="Grupo 83599" clip-path="url(#clip-path)">
          <path id="Trazado_115904" data-name="Trazado 115904" d="M400.125,115.522H383.141A57.4,57.4,0,0,0,380,103.96a56.782,56.782,0,0,0,11.453-7,45.059,45.059,0,0,1,8.672,18.563" transform="translate(-305.781 -77.94)" fill="#ced6f8"/>
          <path id="Trazado_115905" data-name="Trazado 115905" d="M379.031,288h14.656a45.059,45.059,0,0,1-8.672,18.563,57.332,57.332,0,0,0-11.469-7c-.469-.234-.922-.437-1.406-.625h-.016l-.125-.594,7.016-1.562-3.562-3.047A53.418,53.418,0,0,0,376.7,288Z" transform="translate(-299.344 -231.667)" fill="#ced6f8"/>
          <path id="Trazado_115906" data-name="Trazado 115906" d="M291.2,10.72A45.18,45.18,0,0,1,320,27.564a56.782,56.782,0,0,1-11.453,7A57.894,57.894,0,0,0,291.2,10.72" transform="translate(-234.325 -8.544)" fill="#ced6f8"/>
          <path id="Trazado_115907" data-name="Trazado 115907" d="M320,351.625a45.18,45.18,0,0,1-28.8,16.844A58.226,58.226,0,0,0,303,355.359l6.328-1.422-2.2-9.937c.484.188.938.391,1.406.625a57.332,57.332,0,0,1,11.469,7" transform="translate(-234.325 -276.73)" fill="#ced6f8"/>
          <path id="Trazado_115908" data-name="Trazado 115908" d="M86.125,192v18.75H75.844l-3.391-2.906-1.312,2.906H8V192H86.125Z" transform="translate(-6.438 -154.417)" fill="#f8e009"/>
          <rect id="Rectángulo_32880" data-name="Rectángulo 32880" width="18" height="4" transform="translate(80 52)" fill="#ac4038"/>
          <path id="Trazado_115909" data-name="Trazado 115909" d="M86.125,206.063v4.688H75.844l-3.391-2.906-1.312,2.906H8V192h8.281c.188,5.469,1.313,14.063,6.563,14.063Z" transform="translate(-6.438 -154.417)" fill="#fbbb04"/>
          <path id="Trazado_115910" data-name="Trazado 115910" d="M321.143,284.807l-7.016,1.563.125.594h.016l2.2,9.938-6.328,1.422-.687.156L307.1,287.932l-7.016,1.578,2.75-6.094,3.344-7.391,1.313-2.906,3.391,2.906,6.7,5.734Z" transform="translate(-241.471 -219.694)" fill="#f2f2f2"/>
          <path id="Trazado_115911" data-name="Trazado 115911" d="M309.689,275.229l-3.344,7.391-2.75,6.094-3.516.8,2.75-6.094,3.344-7.391,1.312-2.906,2.281,1.953Z" transform="translate(-241.471 -219.694)" fill="#ddd"/>
          <path id="Trazado_115912" data-name="Trazado 115912" d="M339.858,347.677l2.017,9.017-2.828.641-.687.156L336,346.944l1.987-.45a1.562,1.562,0,0,1,1.87,1.183" transform="translate(-270.375 -278.705)" fill="#ddd"/>
          <path id="Trazado_115913" data-name="Trazado 115913" d="M283.359,144.363H256v-6.25a57.269,57.269,0,0,0,24.219-5.312,57.4,57.4,0,0,1,3.141,11.563" transform="translate(-206 -106.78)" fill="#a7b7ea"/>
          <path id="Trazado_115914" data-name="Trazado 115914" d="M355.36,288h7.953a53.418,53.418,0,0,1-1.25,5.734Z" transform="translate(-285.954 -231.667)" fill="#a7b7ea"/>
          <path id="Trazado_115915" data-name="Trazado 115915" d="M280.219,32.375A57.269,57.269,0,0,1,256,37.688V8a45.151,45.151,0,0,1,6.859.516.015.015,0,0,1,.016.016,57.894,57.894,0,0,1,17.344,23.844" transform="translate(-206 -6.355)" fill="#a7b7ea"/>
          <path id="Trazado_115916" data-name="Trazado 115916" d="M273.984,336.2l.688-.156a58.226,58.226,0,0,1-11.8,13.109.015.015,0,0,1-.016.016,45.151,45.151,0,0,1-6.859.516V320a56.7,56.7,0,0,1,11.359,1.141l-2.75,6.094,7.016-1.578Z" transform="translate(-206 -257.417)" fill="#a7b7ea"/>
          <path id="Trazado_115917" data-name="Trazado 115917" d="M270.7,288l-3.344,7.391A56.7,56.7,0,0,0,256,294.25V288Z" transform="translate(-206 -231.667)" fill="#a7b7ea"/>
          <path id="Trazado_115918" data-name="Trazado 115918" d="M156.283,320v29.688a45.151,45.151,0,0,1-6.859-.516.015.015,0,0,1-.016-.016,57.9,57.9,0,0,1-17.328-23.844,57.434,57.434,0,0,1,24.2-5.312" transform="translate(-106.283 -257.417)" fill="#6887ee"/>
          <path id="Trazado_115919" data-name="Trazado 115919" d="M143.279,288v6.25a57.434,57.434,0,0,0-24.2,5.313A57.154,57.154,0,0,1,115.92,288Z" transform="translate(-93.279 -231.667)" fill="#6887ee"/>
          <path id="Trazado_115920" data-name="Trazado 115920" d="M143.279,138.113v6.25H115.92a57.4,57.4,0,0,1,3.141-11.562,57.505,57.505,0,0,0,24.219,5.313" transform="translate(-93.279 -106.78)" fill="#6887ee"/>
          <path id="Trazado_115921" data-name="Trazado 115921" d="M156.219,8V37.688A57.505,57.505,0,0,1,132,32.375,57.894,57.894,0,0,1,149.344,8.531a.015.015,0,0,1,.016-.016A45.151,45.151,0,0,1,156.219,8" transform="translate(-106.219 -6.355)" fill="#6887ee"/>
          <path id="Trazado_115922" data-name="Trazado 115922" d="M102.157,10.72A57.894,57.894,0,0,0,84.813,34.564a57.782,57.782,0,0,1-11.453-7,45.18,45.18,0,0,1,28.8-16.844" transform="translate(-59.032 -8.544)" fill="#2646a6"/>
          <path id="Trazado_115923" data-name="Trazado 115923" d="M84.829,347.2a57.9,57.9,0,0,0,17.328,23.844A45.18,45.18,0,0,1,73.36,354.2a57.782,57.782,0,0,1,11.453-7Z" transform="translate(-59.032 -279.305)" fill="#2646a6"/>
          <path id="Trazado_115924" data-name="Trazado 115924" d="M49.1,299.563h-.016a57.782,57.782,0,0,0-11.453,7A45.059,45.059,0,0,1,28.96,288H45.944A57.155,57.155,0,0,0,49.1,299.563" transform="translate(-23.304 -231.667)" fill="#2646a6"/>
          <path id="Trazado_115925" data-name="Trazado 115925" d="M49.085,103.96a57.4,57.4,0,0,0-3.141,11.563H28.96A45.059,45.059,0,0,1,37.632,96.96a57.782,57.782,0,0,0,11.453,7" transform="translate(-23.304 -77.94)" fill="#2646a6"/>
          <path id="Trazado_115926" data-name="Trazado 115926" d="M98.438,35.938H95.583a46.877,46.877,0,0,0-91.166,0H1.563A1.562,1.562,0,0,0,0,37.5V56.25a1.562,1.562,0,0,0,1.563,1.563H4.417a46.877,46.877,0,0,0,91.166,0h2.855A1.562,1.562,0,0,0,100,56.25V37.5a1.562,1.562,0,0,0-1.562-1.562M43.755,3.614a43.773,43.773,0,0,1,4.683-.42V29.645A55.577,55.577,0,0,1,27.83,25.117a56.7,56.7,0,0,1,15.925-21.5M72.186,25.155a55.762,55.762,0,0,1-20.623,4.5V3.194a43.373,43.373,0,0,1,4.683.42A56.512,56.512,0,0,1,72.186,25.155M26.692,28.03A58.631,58.631,0,0,0,48.438,32.77v3.167H24.523a56.056,56.056,0,0,1,2.169-7.908m24.87,4.752A58.87,58.87,0,0,0,73.32,28.069a55.871,55.871,0,0,1,2.155,7.869H51.563Zm27.092,3.156a58.989,58.989,0,0,0-2.481-9.17,59.58,59.58,0,0,0,9.172-5.628,43.277,43.277,0,0,1,6.986,14.8ZM83.4,18.7a56.374,56.374,0,0,1-8.375,5.148,59.58,59.58,0,0,0-12.714-18.9A44.122,44.122,0,0,1,83.4,18.7M37.7,4.939A59.6,59.6,0,0,0,25,23.8a56.275,56.275,0,0,1-8.381-5.122A44.138,44.138,0,0,1,37.7,4.939ZM14.664,21.125a59.467,59.467,0,0,0,9.181,5.594,58.97,58.97,0,0,0-2.5,9.219H7.669a43.251,43.251,0,0,1,7-14.812M3.125,39.063h75V54.688H69.992l-2.967-2.539a1.564,1.564,0,0,0-2.441.544l-.9,2H3.125ZM72.313,65.072a1.561,1.561,0,0,0-1.184,1.864l2.009,9.009-3.972.886-2.009-9.009A1.562,1.562,0,0,0,65.633,66.6a1.6,1.6,0,0,0-.342.037l-3.972.884,5.258-11.647,9.709,8.308ZM56.239,90.136a43.66,43.66,0,0,1-4.677.42V64.1a55.619,55.619,0,0,1,7.544.725l-1.923,4.261a1.563,1.563,0,0,0,1.766,2.167l5.5-1.225,2,8.956A56.918,56.918,0,0,1,56.239,90.136Zm-28.42-21.5A55.594,55.594,0,0,1,48.438,64.1V90.555a43.548,43.548,0,0,1-4.692-.422,56.4,56.4,0,0,1-15.927-21.5m32.614-6.745a58.457,58.457,0,0,0-8.87-.914V57.813H62.273Zm-12-.912a58.655,58.655,0,0,0-21.753,4.745,55.494,55.494,0,0,1-2.162-7.911H48.438Zm25.206-3.166h1.831c-.088.444-.173.886-.273,1.333Zm-52.3,0a58.964,58.964,0,0,0,2.491,9.223,59.5,59.5,0,0,0-9.17,5.587,43.266,43.266,0,0,1-7-14.812H21.344Zm-4.73,17.256a56.459,56.459,0,0,1,8.369-5.116A59.294,59.294,0,0,0,37.653,88.8,44.135,44.135,0,0,1,16.614,75.069ZM62.28,88.817a59.7,59.7,0,0,0,7.32-8.881l5.744-1.28a1.561,1.561,0,0,0,1.184-1.864L75,69.95a55.929,55.929,0,0,1,8.386,5.117A44.144,44.144,0,0,1,62.28,88.817ZM85.336,72.625A58.956,58.956,0,0,0,76.688,67.3l3.328-.742a1.562,1.562,0,0,0,.675-2.711L77.856,61.42q.464-1.812.8-3.606H92.33A43.212,43.212,0,0,1,85.336,72.625ZM96.875,54.688H81.25V39.063H96.875Z" transform="translate(0 0.083)"/>
          <path id="Trazado_115927" data-name="Trazado 115927" d="M428.688,217.375a4.637,4.637,0,0,0,1.388-.233l2.05,2.733a1.562,1.562,0,0,0,2.5-1.873l-2.039-2.719a4.684,4.684,0,1,0-3.9,2.092Zm0-6.25a1.563,1.563,0,1,1-1.562,1.563,1.564,1.564,0,0,1,1.563-1.562" transform="translate(-341.188 -167.292)"/>
          <path id="Trazado_115928" data-name="Trazado 115928" d="M67.938,216H33.563a1.563,1.563,0,0,0,0,3.125H67.938a1.563,1.563,0,0,0,0-3.125" transform="translate(-25.75 -173.73)"/>
          <path id="Trazado_115929" data-name="Trazado 115929" d="M50.75,248H33.563a1.563,1.563,0,0,0,0,3.125H50.75a1.563,1.563,0,0,0,0-3.125" transform="translate(-25.75 -199.48)"/>
          <path id="Trazado_115930" data-name="Trazado 115930" d="M159.813,248h-6.25a1.563,1.563,0,0,0,0,3.125h6.25a1.563,1.563,0,0,0,0-3.125" transform="translate(-122.313 -199.48)"/>
        </g>
      </g>
    </g>
  </g>
</svg>
