<svg xmlns="http://www.w3.org/2000/svg" xmlns:xlink="http://www.w3.org/1999/xlink" width="989" height="796" viewBox="0 0 989 796">
  <defs>
    <clipPath id="clip-path">
      <rect id="Rectángulo_345291" data-name="Rectángulo 345291" width="50.652" height="50.632" fill="#0b428a"/>
    </clipPath>
  </defs>
  <g id="Grupo_999468" data-name="Grupo 999468" transform="translate(8381 5939)">
    <rect id="Rectángulo_345300" data-name="Rectángulo 345300" width="989" height="796" transform="translate(-8381 -5939)" fill="#fff"/>
    <path id="Trazado_665928" data-name="Trazado 665928" d="M-7982.328-5473.828H-8320v-355.778l337.671-104.727Z" transform="translate(40.884 29.682)" fill="#dee9f0"/>
    <rect id="Rectángulo_345288" data-name="Rectángulo 345288" width="989" height="237" transform="translate(-8381 -5380)" fill="#dee9f0"/>
    <g id="Grupo_999466" data-name="Grupo 999466" transform="translate(-8359.5 -5329.182)">
      <g id="Elipse_7895" data-name="Elipse 7895" transform="translate(0.5 0.182)" fill="none" stroke="#0b428a" stroke-width="4">
        <ellipse cx="63.5" cy="62.5" rx="63.5" ry="62.5" stroke="none"/>
        <ellipse cx="63.5" cy="62.5" rx="61.5" ry="60.5" fill="none"/>
      </g>
      <path id="Trazado_665915" data-name="Trazado 665915" d="M-8290.565-5725.334l42.492,40.705L-8290.565-5639s-16.551-16.1-17.893-45.624S-8290.565-5725.334-8290.565-5725.334Z" transform="translate(8310.707 5745.805)" fill="#0b428a"/>
      <path id="Trazado_665916" data-name="Trazado 665916" d="M-8266.033-5725.334l-42.492,40.705,42.492,45.624s15.726-11.406,17.067-40.928S-8266.033-5725.334-8266.033-5725.334Z" transform="translate(8375.117 5745.134)" fill="#0b428a"/>
    </g>
    <ellipse id="Elipse_7896" data-name="Elipse 7896" cx="8" cy="7.5" rx="8" ry="7.5" transform="translate(-8313 -5315)" fill="#25ffff"/>
    <circle id="Elipse_7897" data-name="Elipse 7897" cx="8" cy="8" r="8" transform="translate(-8291 -5308)" fill="#25ffff"/>
    <ellipse id="Elipse_7899" data-name="Elipse 7899" cx="8" cy="9" rx="8" ry="9" transform="translate(-8297 -5255)" fill="#fb5454" opacity="0.7"/>
    <circle id="Elipse_7900" data-name="Elipse 7900" cx="7.5" cy="7.5" r="7.5" transform="translate(-8318 -5241)" fill="#fb5454"/>
    <circle id="Elipse_7898" data-name="Elipse 7898" cx="8" cy="8" r="8" transform="translate(-8305 -5294)" fill="#25ffff"/>
    <path id="Trazado_665917" data-name="Trazado 665917" d="M-8288.7-5683.429l-16.869,18.4,16.869-8.818,16.486,8.818Z" transform="translate(-43.818 487.181)" fill="#f23f3f"/>
    <path id="Trazado_665919" data-name="Trazado 665919" d="M-8288.7-5683.429l-16.869,18.4,16.869-8.818,16.486,8.818Z" transform="translate(-43.818 328.838)" fill="#25a1ff"/>
    <path id="Trazado_665918" data-name="Trazado 665918" d="M-8288.7-5683.429l-16.869,18.4,16.869-8.818,16.486,8.818Z" transform="translate(30.177 487.181)" fill="#f23f3f"/>
    <path id="Trazado_665920" data-name="Trazado 665920" d="M-8288.7-5683.429l-16.869,18.4,16.869-8.818,16.486,8.818Z" transform="translate(30.177 328.838)" fill="#25a1ff"/>
    <path id="Unión_3" data-name="Unión 3" d="M47.373,7.328a6.039,6.039,0,0,1-.657-3.352l-.026,0v0A4.75,4.75,0,0,0,46.263,1.5a.755.755,0,0,0-.66-.346C44.283,1.15,44.26,4,44.26,4.027a8.541,8.541,0,0,1-.247,1.9c-.353,1.367-1.062,2.12-1.99,2.12A1.586,1.586,0,0,1,40.7,7.328a6.053,6.053,0,0,1-.656-3.353l-.025,0v0A4.727,4.727,0,0,0,39.59,1.5a.753.753,0,0,0-.659-.346c-1.32,0-1.342,2.846-1.342,2.877a8.6,8.6,0,0,1-.246,1.9c-.356,1.367-1.061,2.12-1.991,2.12a1.581,1.581,0,0,1-1.321-.723,6.032,6.032,0,0,1-.657-3.352l-.026,0v0A4.752,4.752,0,0,0,32.919,1.5a.752.752,0,0,0-.659-.346c-1.32,0-1.343,2.846-1.343,2.877a8.487,8.487,0,0,1-.247,1.9c-.353,1.367-1.061,2.12-1.989,2.12a1.585,1.585,0,0,1-1.324-.723A6.046,6.046,0,0,1,26.7,3.975l-.026,0v0A4.718,4.718,0,0,0,26.248,1.5a.754.754,0,0,0-.659-.346c-1.32,0-1.342,2.846-1.342,2.877A8.6,8.6,0,0,1,24,5.932c-.356,1.367-1.061,2.12-1.991,2.12a1.582,1.582,0,0,1-1.322-.723,6.047,6.047,0,0,1-.657-3.352l-.025,0v0A4.752,4.752,0,0,0,19.577,1.5a.753.753,0,0,0-.659-.346C17.6,1.15,17.574,4,17.574,4.027a8.488,8.488,0,0,1-.247,1.9c-.353,1.367-1.061,2.12-1.99,2.12a1.585,1.585,0,0,1-1.323-.723,6.046,6.046,0,0,1-.656-3.353l-.026,0v0A4.726,4.726,0,0,0,12.905,1.5a.755.755,0,0,0-.66-.346C10.925,1.15,10.9,4,10.9,4.027a8.6,8.6,0,0,1-.246,1.9C10.3,7.3,9.6,8.051,8.667,8.051a1.582,1.582,0,0,1-1.322-.723,6.047,6.047,0,0,1-.657-3.352l-.025,0v0A4.752,4.752,0,0,0,6.234,1.5a.753.753,0,0,0-.659-.346C4.254,1.15,4.232,4,4.232,4.027a8.541,8.541,0,0,1-.247,1.9C3.632,7.3,2.924,8.051,2,8.051A1.587,1.587,0,0,1,.671,7.328,6.058,6.058,0,0,1,.016,3.972l.891.108a4.711,4.711,0,0,0,.428,2.473A.752.752,0,0,0,2,6.9c1.319,0,1.343-2.846,1.343-2.875a8.491,8.491,0,0,1,.246-1.906C3.938.753,4.645,0,5.575,0A1.585,1.585,0,0,1,6.9.725a6.036,6.036,0,0,1,.655,3.351l.027,0-.027,0h0l.027,0a4.718,4.718,0,0,0,.428,2.473.752.752,0,0,0,.66.347c1.319,0,1.342-2.846,1.342-2.875a8.437,8.437,0,0,1,.247-1.906C10.609.753,11.316,0,12.245,0a1.584,1.584,0,0,1,1.322.725,6.015,6.015,0,0,1,.656,3.352l.027,0-.027,0h0l.027,0a4.7,4.7,0,0,0,.428,2.473.752.752,0,0,0,.659.347c1.319,0,1.343-2.846,1.343-2.875a8.491,8.491,0,0,1,.246-1.906C17.281.753,17.988,0,18.917,0A1.584,1.584,0,0,1,20.24.725,6.046,6.046,0,0,1,20.9,4.076l.026,0-.026,0h0l.026,0a4.718,4.718,0,0,0,.428,2.473.753.753,0,0,0,.66.347c1.32,0,1.342-2.846,1.342-2.875A8.437,8.437,0,0,1,23.6,2.118C23.951.753,24.658,0,25.588,0A1.583,1.583,0,0,1,26.91.725a6.015,6.015,0,0,1,.656,3.352l.027,0-.027,0h0l.027,0a4.7,4.7,0,0,0,.428,2.473.753.753,0,0,0,.66.347c1.318,0,1.342-2.846,1.342-2.875a8.545,8.545,0,0,1,.246-1.906C30.624.753,31.331,0,32.26,0a1.584,1.584,0,0,1,1.322.725,6.046,6.046,0,0,1,.656,3.351l.026,0-.026,0h0l.026,0a4.718,4.718,0,0,0,.428,2.473.753.753,0,0,0,.66.347c1.32,0,1.342-2.846,1.342-2.875a8.437,8.437,0,0,1,.247-1.906C37.294.753,38,0,38.931,0a1.583,1.583,0,0,1,1.321.725,6.014,6.014,0,0,1,.656,3.352l.027,0-.027,0h0l.027,0a4.711,4.711,0,0,0,.428,2.473.751.751,0,0,0,.659.347c1.318,0,1.343-2.846,1.343-2.875a8.518,8.518,0,0,1,.245-1.906C43.966.753,44.673,0,45.6,0a1.584,1.584,0,0,1,1.322.725,6.038,6.038,0,0,1,.656,3.351l.027,0-.027,0h0l.027,0a4.708,4.708,0,0,0,.427,2.473.753.753,0,0,0,.66.347c1.32,0,1.342-2.846,1.342-2.875a8.437,8.437,0,0,1,.247-1.906C50.637.753,51.343,0,52.273,0A1.585,1.585,0,0,1,53.6.725a6.027,6.027,0,0,1,.655,3.356l-.465-.058-.425-.05v0A4.727,4.727,0,0,0,52.933,1.5a.753.753,0,0,0-.659-.346c-1.32,0-1.342,2.846-1.342,2.877a8.543,8.543,0,0,1-.246,1.9c-.355,1.367-1.061,2.12-1.991,2.12A1.581,1.581,0,0,1,47.373,7.328ZM40.936,4.08ZM27.593,4.08ZM14.251,4.08ZM.907,4.08Zm0,0L.462,4.024Z" transform="translate(-8321.383 -5232.67)" fill="#a97ffe"/>
    <path id="Unión_4" data-name="Unión 4" d="M42.7,7.328a6.62,6.62,0,0,1-.592-3.352l-.023,0v0A5.213,5.213,0,0,0,41.7,1.5a.664.664,0,0,0-.6-.346C39.918,1.15,39.9,4,39.9,4.027a9.433,9.433,0,0,1-.223,1.9c-.319,1.367-.957,2.12-1.793,2.12a1.4,1.4,0,0,1-1.193-.723A6.635,6.635,0,0,1,36.1,3.975l-.022,0v0A5.188,5.188,0,0,0,35.688,1.5a.663.663,0,0,0-.594-.346c-1.19,0-1.21,2.846-1.21,2.877a9.5,9.5,0,0,1-.221,1.9c-.321,1.367-.957,2.12-1.795,2.12a1.4,1.4,0,0,1-1.191-.723,6.611,6.611,0,0,1-.592-3.352l-.023,0v0A5.214,5.214,0,0,0,29.675,1.5a.662.662,0,0,0-.594-.346C27.891,1.15,27.87,4,27.87,4.027a9.374,9.374,0,0,1-.223,1.9c-.318,1.367-.957,2.12-1.793,2.12a1.4,1.4,0,0,1-1.193-.723,6.627,6.627,0,0,1-.592-3.353l-.023,0v0A5.178,5.178,0,0,0,23.661,1.5a.664.664,0,0,0-.594-.346c-1.19,0-1.21,2.846-1.21,2.877a9.5,9.5,0,0,1-.221,1.9c-.321,1.367-.957,2.12-1.795,2.12a1.4,1.4,0,0,1-1.192-.723,6.628,6.628,0,0,1-.592-3.352l-.022,0v0A5.214,5.214,0,0,0,17.647,1.5a.663.663,0,0,0-.594-.346c-1.19,0-1.211,2.846-1.211,2.877a9.375,9.375,0,0,1-.223,1.9c-.318,1.367-.957,2.12-1.793,2.12a1.4,1.4,0,0,1-1.193-.723,6.627,6.627,0,0,1-.592-3.353l-.023,0v0A5.186,5.186,0,0,0,11.633,1.5a.664.664,0,0,0-.6-.346C9.848,1.15,9.829,4,9.829,4.027a9.5,9.5,0,0,1-.221,1.9C9.287,7.3,8.65,8.051,7.813,8.051a1.4,1.4,0,0,1-1.192-.723,6.628,6.628,0,0,1-.592-3.352l-.023,0v0A5.214,5.214,0,0,0,5.62,1.5a.663.663,0,0,0-.594-.346C3.835,1.15,3.815,4,3.815,4.027a9.433,9.433,0,0,1-.223,1.9C3.274,7.3,2.635,8.051,1.8,8.051A1.4,1.4,0,0,1,.605,7.328,6.641,6.641,0,0,1,.014,3.972l.8.108A5.169,5.169,0,0,0,1.2,6.553.662.662,0,0,0,1.8,6.9c1.189,0,1.211-2.846,1.211-2.875a9.379,9.379,0,0,1,.221-1.906C3.55.753,4.187,0,5.025,0A1.4,1.4,0,0,1,6.217.725a6.616,6.616,0,0,1,.591,3.351l.024,0-.024,0h0l.024,0a5.177,5.177,0,0,0,.385,2.473.662.662,0,0,0,.6.347C9,6.9,9.022,4.053,9.022,4.024a9.319,9.319,0,0,1,.223-1.906C9.563.753,10.2,0,11.038,0A1.4,1.4,0,0,1,12.23.725a6.592,6.592,0,0,1,.592,3.352l.024,0-.024,0h0l.024,0a5.159,5.159,0,0,0,.385,2.473.662.662,0,0,0,.594.347c1.189,0,1.211-2.846,1.211-2.875a9.379,9.379,0,0,1,.221-1.906C15.578.753,16.215,0,17.053,0a1.4,1.4,0,0,1,1.192.725,6.627,6.627,0,0,1,.592,3.351l.023,0-.023,0h0l.023,0a5.177,5.177,0,0,0,.385,2.473.663.663,0,0,0,.6.347c1.19,0,1.21-2.846,1.21-2.875a9.319,9.319,0,0,1,.223-1.906C21.591.753,22.228,0,23.066,0a1.4,1.4,0,0,1,1.191.725,6.592,6.592,0,0,1,.592,3.352l.024,0-.024,0h0l.024,0a5.159,5.159,0,0,0,.385,2.473.663.663,0,0,0,.6.347c1.188,0,1.21-2.846,1.21-2.875a9.438,9.438,0,0,1,.221-1.906C27.605.753,28.243,0,29.08,0a1.4,1.4,0,0,1,1.192.725,6.627,6.627,0,0,1,.592,3.351l.023,0-.023,0h0l.023,0a5.177,5.177,0,0,0,.385,2.473.663.663,0,0,0,.6.347c1.19,0,1.21-2.846,1.21-2.875A9.319,9.319,0,0,1,33.3,2.118C33.618.753,34.255,0,35.093,0a1.4,1.4,0,0,1,1.191.725,6.592,6.592,0,0,1,.592,3.352l.024,0-.024,0h0l.024,0a5.169,5.169,0,0,0,.386,2.473.661.661,0,0,0,.594.347c1.188,0,1.211-2.846,1.211-2.875a9.409,9.409,0,0,1,.221-1.906C39.633.753,40.27,0,41.108,0A1.4,1.4,0,0,1,42.3.725a6.619,6.619,0,0,1,.592,3.351l.024,0-.024,0h0l.024,0A5.167,5.167,0,0,0,43.3,6.553a.663.663,0,0,0,.6.347c1.19,0,1.21-2.846,1.21-2.875a9.319,9.319,0,0,1,.223-1.906C45.646.753,46.283,0,47.121,0a1.4,1.4,0,0,1,1.192.725A6.607,6.607,0,0,1,48.9,4.08l-.419-.058-.383-.05v0A5.188,5.188,0,0,0,47.715,1.5a.663.663,0,0,0-.594-.346c-1.19,0-1.21,2.846-1.21,2.877a9.437,9.437,0,0,1-.221,1.9c-.32,1.367-.957,2.12-1.795,2.12A1.4,1.4,0,0,1,42.7,7.328ZM36.9,4.08ZM24.873,4.08ZM12.846,4.08ZM.818,4.08Zm0,0-.4-.056Z" transform="translate(-8316.034 -5244.747)" fill="#a97ffe"/>
    <text id="La_válvula_de_expansión" data-name="La válvula de expansión" transform="translate(-8209 -5334)" font-size="22" font-family="Roboto-Bold, Roboto" font-weight="700"><tspan x="0" y="0">La válvula de expansión</tspan></text>
    <text id="_Válvula_de_expansión" data-name=" Válvula de
 expansión" transform="translate(-7818 -5446)" fill="#0b428a" font-size="21" font-family="Roboto-Bold, Roboto" font-weight="700"><tspan x="0" y="0" xml:space="preserve"> Válvula de</tspan><tspan x="0" y="25" xml:space="preserve"> expansión</tspan></text>
    <text id="El_compresor" data-name="El compresor" transform="translate(-7703 -5334)" font-size="22" font-family="Roboto-Bold, Roboto" font-weight="700"><tspan x="0" y="0">El compresor</tspan></text>
    <text id="La_válvula_de_expansión_libera_de_la_presión_al_gas_refrigerante_que_al_atravesarla_comienza_el_cambio_de_estado_de_líquido_a_gaseoso._Este_proceso_termina_de_producirse_en_el_evaporador._" data-name="La válvula de expansión libera de la presión al gas refrigerante, que al atravesarla comienza el cambio de estado de líquido a gaseoso. Este proceso termina de producirse en el evaporador.
" transform="translate(-8209 -5321)" font-size="18" font-family="Roboto-Regular, Roboto"><tspan x="0" y="17">La válvula de expansión libera de la </tspan><tspan x="0" y="39">presión al gas refrigerante, que al </tspan><tspan x="0" y="61">atravesarla comienza el cambio de </tspan><tspan x="0" y="83">estado de líquido a gaseoso. Este </tspan><tspan x="0" y="105">proceso termina de producirse en </tspan><tspan x="0" y="127">el evaporador.</tspan><tspan x="0" y="149"></tspan></text>
    <text id="Comprime_el_gas_que_llega_desde_el_evaporador_en_estado_gaseoso._El_compresor_aumenta_la_presión_del_gas_refrigerante_que_continúa_hacia_el_condensador_donde_cambiará_a_estado_líquido._" data-name="Comprime el gas que llega desde  el evaporador  en estado gaseoso. El compresor aumenta la presión del gas refrigerante que continúa  hacia el condensador, donde cambiará a estado líquido. 
" transform="translate(-7703 -5321)" font-size="18" font-family="Roboto-Regular, Roboto"><tspan x="0" y="17" xml:space="preserve">Comprime el gas que llega desde  </tspan><tspan x="0" y="39" xml:space="preserve">el evaporador  en estado gaseoso. </tspan><tspan x="0" y="61">El compresor aumenta la presión </tspan><tspan x="0" y="83" xml:space="preserve">del gas refrigerante que continúa  </tspan><tspan x="0" y="105">hacia el condensador, donde </tspan><tspan x="0" y="127">cambiará a estado líquido. </tspan><tspan x="0" y="149"></tspan></text>
    <circle id="Elipse_7906" data-name="Elipse 7906" cx="5.571" cy="5.571" r="5.571" transform="translate(-7862.987 -5307.578)" fill="#25ffff"/>
    <circle id="Elipse_7910" data-name="Elipse 7910" cx="5.571" cy="5.571" r="5.571" transform="translate(-7796.137 -5304.793)" fill="#25ffff"/>
    <circle id="Elipse_7907" data-name="Elipse 7907" cx="6.964" cy="6.964" r="6.964" transform="translate(-7857.417 -5288.08)" fill="#25ffff"/>
    <circle id="Elipse_7909" data-name="Elipse 7909" cx="6.964" cy="6.964" r="6.964" transform="translate(-7801.707 -5285.294)" fill="#25ffff"/>
    <circle id="Elipse_7908" data-name="Elipse 7908" cx="5.571" cy="5.571" r="5.571" transform="translate(-7843.489 -5302.007)" fill="#25ffff"/>
    <circle id="Elipse_7911" data-name="Elipse 7911" cx="6.964" cy="6.964" r="6.964" transform="translate(-7779.424 -5299.222)" fill="#25ffff"/>
    <circle id="Elipse_7901" data-name="Elipse 7901" cx="6.964" cy="6.964" r="6.964" transform="translate(-7860.202 -5235.157)" fill="#fb5454"/>
    <circle id="Elipse_7902" data-name="Elipse 7902" cx="6.964" cy="6.964" r="6.964" transform="translate(-7837.918 -5226.8)" fill="#fb5454"/>
    <circle id="Elipse_7904" data-name="Elipse 7904" cx="6.964" cy="6.964" r="6.964" transform="translate(-7810.063 -5224.014)" fill="#fb5454"/>
    <circle id="Elipse_7905" data-name="Elipse 7905" cx="6.964" cy="6.964" r="6.964" transform="translate(-7784.994 -5224.014)" fill="#e98787"/>
    <circle id="Elipse_7903" data-name="Elipse 7903" cx="5.571" cy="5.571" r="5.571" transform="translate(-7823.991 -5235.157)" fill="#fb5454"/>
    <path id="Trazado_665921" data-name="Trazado 665921" d="M17.358,0,0,18.938,17.358,9.863l16.963,9.074Z" transform="translate(-7767.833 -5169.234) rotate(180)" fill="#f23f3f"/>
    <path id="Trazado_665923" data-name="Trazado 665923" d="M17.358,0,0,18.938,17.358,9.863l16.963,9.074Z" transform="translate(-7761.815 -5332.161) rotate(180)" fill="#25a1ff"/>
    <path id="Trazado_665922" data-name="Trazado 665922" d="M17.358,0,0,18.938,17.358,9.863l16.963,9.074Z" transform="translate(-7829.113 -5169.234) rotate(180)" fill="#f23f3f"/>
    <path id="Trazado_665924" data-name="Trazado 665924" d="M17.358,0,0,18.938,17.358,9.863l16.963,9.074Z" transform="translate(-7837.953 -5332.161) rotate(180)" fill="#25a1ff"/>
    <path id="Unión_16" data-name="Unión 16" d="M11.48,167.177A11.615,11.615,0,0,1,0,155.432V52.65A11.616,11.616,0,0,1,11.48,40.9H52.924V0h19.5V40.9h42.373a11.616,11.616,0,0,1,11.48,11.747V155.432a11.615,11.615,0,0,1-11.48,11.745Zm0-11.745H114.795V127.253H11.48Zm103.315-64.39V52.65H72.422V91.042Zm-61.871,0V52.65H11.48V91.042Z" transform="translate(-7876.915 -5362.409)" fill="#0b428a"/>
    <path id="Trazado_665925" data-name="Trazado 665925" d="M-8304.5-5875.833h182.784v194.527H-8304.5Zm173.974,8.809h-165.164v176.909h165.164Z" transform="translate(94.387 121.912)" fill="#0b428a"/>
    <path id="Trazado_665925-2" data-name="Trazado 665925" d="M-8304.5-5875.833h182.784v194.527H-8304.5Zm173.974,8.809h-165.164v176.909h165.164Z" transform="translate(578.872 121.912)" fill="#0b428a"/>
    <path id="Trazado_665925-3" data-name="Trazado 665925" d="M-8257.648-5751.65a4.406,4.406,0,0,1-4.051-2.671,4.4,4.4,0,0,1,2.313-5.783,25.33,25.33,0,0,0,5.951-3.714c2.066-1.771,2.637-3.062,2.648-3.5.008-.238-.521-1.2-2.963-2.418-8.008-4-12.137-8.742-12.271-14.081-.082-3.328,1.434-8.212,9.139-12.566a36.85,36.85,0,0,0,4.9-3.148,5.441,5.441,0,0,0,1.381-1.422c-.131-.391-1-2.2-6.588-5.987-3.781-2.562-8.783-6.6-8.6-12.114.1-2.787,1.543-5.376,4.3-7.7a44.675,44.675,0,0,1,6.338-4.173c.379-.22.758-.439,1.131-.659a6.272,6.272,0,0,0,2.078-1.694c-1.678-1.232-5.461-4.082-11.055-8.742-4.381-3.65-5.092-7.273-4.918-9.67.332-4.574,3.967-7.389,5.131-8.179l13.256-10.767a4.4,4.4,0,0,1,6.193.642,4.4,4.4,0,0,1-.643,6.194l-13.426,10.907a2.859,2.859,0,0,1-.455.325c-.562.379-1.25,1.142-1.273,1.524-.01.206.285,1.015,1.771,2.256,7.287,6.066,11.414,8.975,11.457,9a4.384,4.384,0,0,1,.746.658,8.776,8.776,0,0,1,2.029,7.007c-.49,3.174-2.652,5.907-6.426,8.126-.389.229-.779.455-1.174.684a44.983,44.983,0,0,0-4.715,2.992,5.04,5.04,0,0,0-1.533,1.577c.078.258.7,1.774,4.723,4.5,5.3,3.594,10.693,8.023,10.467,13.659-.219,5.448-5.443,8.848-10.771,11.858-3.482,1.968-4.691,3.75-4.666,4.676.029,1.273,1.992,3.719,7.406,6.426,6.629,3.314,7.916,7.569,7.826,10.557-.1,3.418-2.023,6.757-5.719,9.925a33.787,33.787,0,0,1-8.217,5.123A4.359,4.359,0,0,1-8257.648-5751.65Z" transform="translate(165.2 130.072)" fill="#25a8ff"/>
    <path id="Trazado_665929" data-name="Trazado 665929" d="M-8257.648-5751.65a4.359,4.359,0,0,0,1.73-.358,33.787,33.787,0,0,0,8.217-5.123c3.7-3.168,5.621-6.507,5.719-9.925.09-2.987-1.2-7.242-7.826-10.557-5.414-2.707-7.377-5.152-7.406-6.426-.025-.926,1.184-2.708,4.666-4.676,5.328-3.011,10.553-6.41,10.771-11.858.227-5.636-5.166-10.065-10.467-13.659-4.027-2.729-4.645-4.245-4.723-4.5a5.04,5.04,0,0,1,1.533-1.577,44.983,44.983,0,0,1,4.715-2.992c.395-.229.785-.454,1.174-.684,3.773-2.219,5.936-4.952,6.426-8.126a8.776,8.776,0,0,0-2.029-7.007,4.421,4.421,0,0,0-.75-.66c-.039-.028-4.166-2.937-11.453-9-1.5-1.247-1.785-2.054-1.77-2.26.031-.441.9-1.294,1.25-1.506a4.3,4.3,0,0,0,.477-.34l13.426-10.907a4.4,4.4,0,0,0,.643-6.194,4.4,4.4,0,0,0-6.193-.642l-13.256,10.767c-1.164.79-4.8,3.6-5.131,8.179-.174,2.4.537,6.02,4.918,9.67,5.594,4.66,9.377,7.51,11.055,8.742a6.272,6.272,0,0,1-2.078,1.694c-.373.22-.752.439-1.131.659a44.675,44.675,0,0,0-6.338,4.173c-2.758,2.319-4.2,4.908-4.3,7.7-.187,5.51,4.814,9.553,8.6,12.114,5.59,3.785,6.457,5.6,6.588,5.987a5.441,5.441,0,0,1-1.381,1.422,36.85,36.85,0,0,1-4.9,3.148c-7.705,4.354-9.221,9.238-9.139,12.566.135,5.339,4.264,10.078,12.271,14.081,2.441,1.221,2.971,2.18,2.963,2.418-.012.437-.582,1.727-2.648,3.5a25.33,25.33,0,0,1-5.951,3.714,4.4,4.4,0,0,0-2.312,5.783A4.406,4.406,0,0,0-8257.648-5751.65Z" transform="translate(594.442 130.072)" fill="#ae0000"/>
    <text id="EVAPORADOR" transform="translate(-8189 -5583)" fill="#0b428a" font-size="21" font-family="Roboto-Bold, Roboto" font-weight="700"><tspan x="0" y="0">EVAPORADOR</tspan></text>
    <text id="CONDENSADOR" transform="translate(-7713 -5587)" fill="#0b428a" font-size="21" font-family="Roboto-Bold, Roboto" font-weight="700"><tspan x="0" y="0">CONDENSADOR</tspan></text>
    <text id="Compresor" transform="translate(-7707 -5813)" fill="#0b428a" font-size="21" font-family="Roboto-Bold, Roboto" font-weight="700"><tspan x="0" y="0">Compresor</tspan></text>
    <path id="Trazado_665926" data-name="Trazado 665926" d="M36.7,5.873a30.831,30.831,0,0,0,0,61.662,29.832,29.832,0,0,0,9.812-1.59l.021-.008c12.756-4.689,21-16.164,21-29.233A30.866,30.866,0,0,0,36.7,5.873M36.7,0a36.7,36.7,0,0,1,36.7,36.7c0,15.811-10,29.287-24.844,34.745A35.377,35.377,0,0,1,36.7,73.407,36.7,36.7,0,0,1,36.7,0Z" transform="translate(-8193.965 -5698.133)" fill="#0b428a"/>
    <path id="Trazado_665926-2" data-name="Trazado 665926" d="M36.7,5.873a30.831,30.831,0,1,1,0,61.662,29.832,29.832,0,0,1-9.812-1.59l-.021-.008c-12.756-4.689-21-16.164-21-29.233A30.866,30.866,0,0,1,36.7,5.873M36.7,0A36.7,36.7,0,0,0,0,36.7C0,52.514,10,65.991,24.844,71.449A35.377,35.377,0,0,0,36.7,73.407,36.7,36.7,0,0,0,36.7,0Z" transform="translate(-7637.053 -5697.295)" fill="#0b428a"/>
    <g id="Grupo_999464" data-name="Grupo 999464" transform="translate(-8182.411 -5685.25)">
      <g id="Grupo_999463" data-name="Grupo 999463" clip-path="url(#clip-path)">
        <path id="Trazado_665927" data-name="Trazado 665927" d="M23.2,32.975c-.112-.044-.211-.09-.315-.123a6.424,6.424,0,0,1-1.862-.924,7.378,7.378,0,0,1-1.131-.907A.205.205,0,0,0,19.7,31a1.653,1.653,0,0,0-.26.212c-.707.608-1.408,1.222-2.124,1.819-.234.2-.524.324-.762.515a19.751,19.751,0,0,1-3.987,2.313,11.489,11.489,0,0,1-2.837.923,8.194,8.194,0,0,1-3.344,0A6.434,6.434,0,0,1,5.042,36.3a6.531,6.531,0,0,1-2.054-1.538,11.366,11.366,0,0,1-.78-1.05c-.117-.163-.213-.341-.326-.506A8.953,8.953,0,0,1,.788,30.742a17.742,17.742,0,0,1-.555-2.174,14.567,14.567,0,0,1-.22-3.123,20.55,20.55,0,0,1,.244-2.34,15.879,15.879,0,0,1,.484-2.119A15.9,15.9,0,0,1,1.462,19.2a8.5,8.5,0,0,1,1.08-1.865,7.626,7.626,0,0,1,1.42-1.376A5.429,5.429,0,0,1,6.9,14.955a5.032,5.032,0,0,1,2.893.736,6.907,6.907,0,0,1,1.9,1.652c.5.611.93,1.279,1.4,1.916a13.7,13.7,0,0,0,2.555,2.664,8.59,8.59,0,0,0,1.679,1.082,1.585,1.585,0,0,1,.194.123c.15.1.183.076.251-.092.205-.508.395-1.024.639-1.513a6.071,6.071,0,0,1,1.166-1.6c.1-.1.144-.2.026-.315a25.263,25.263,0,0,1-2.356-2.854A21.067,21.067,0,0,1,14.5,11.9a8.462,8.462,0,0,1-.56-1.988c-.073-.59-.2-1.176-.23-1.768a5.927,5.927,0,0,1,.6-3.021,7.823,7.823,0,0,1,3.174-3.3A12.526,12.526,0,0,1,21.215.395,17.978,17.978,0,0,1,24.48,0,19.1,19.1,0,0,1,27.285.2a14.6,14.6,0,0,1,2.548.593,12.637,12.637,0,0,1,2.86,1.306,6.231,6.231,0,0,1,1.475,1.235,6.275,6.275,0,0,1,1.178,1.9,5.029,5.029,0,0,1-.114,3.96,6.608,6.608,0,0,1-2.151,2.652c-.75.555-1.519,1.085-2.249,1.665a11.8,11.8,0,0,0-2.5,2.664c-.3.45-.549.936-.826,1.4-.075.126-.016.165.094.2a7.521,7.521,0,0,1,2.977,1.652c.1.092.211.244.319.247s.2-.163.3-.253a26.442,26.442,0,0,1,2.721-2.209c.686-.461,1.354-.955,2.069-1.365a24.188,24.188,0,0,1,2.36-1.172A11.973,11.973,0,0,1,40.278,14a9.135,9.135,0,0,1,3.32-.264,6.371,6.371,0,0,1,3.459,1.573,9.608,9.608,0,0,1,2.213,3.042,13.651,13.651,0,0,1,.637,1.667,13.8,13.8,0,0,1,.608,2.759,15.7,15.7,0,0,1,.122,2.758,16.6,16.6,0,0,1-.59,3.606,14.546,14.546,0,0,1-1.411,3.368,6.255,6.255,0,0,1-3.07,2.781,5.131,5.131,0,0,1-3.687.126A6.52,6.52,0,0,1,38.7,32.945c-.433-.583-.823-1.2-1.29-1.756a13.352,13.352,0,0,0-1.965-2.109,14.146,14.146,0,0,0-2.355-1.6c-.108-.052-.154-.011-.186.08-.067.189-.122.383-.2.566a7.8,7.8,0,0,1-1.558,2.512c-.215.215-.2.225-.006.446a32.106,32.106,0,0,1,2.84,3.6c.487.752.912,1.543,1.363,2.318a14.5,14.5,0,0,1,1.024,2.33,9.359,9.359,0,0,1,.433,1.8,9.882,9.882,0,0,1,.178,1.685A6.15,6.15,0,0,1,36.553,45a7.141,7.141,0,0,1-1.308,2.11,10.085,10.085,0,0,1-2.99,2.164,10.912,10.912,0,0,1-2.3.842,16.738,16.738,0,0,1-8.646-.11,18.313,18.313,0,0,1-1.887-.708,8.325,8.325,0,0,1-1.306-.661,6.767,6.767,0,0,1-1.949-1.678,6.175,6.175,0,0,1-1.136-2.509,5.08,5.08,0,0,1,.378-2.974,6.067,6.067,0,0,1,1.658-2.247q.893-.752,1.849-1.429a14.985,14.985,0,0,0,2.454-2.136,8.515,8.515,0,0,0,1.552-2.208,2.492,2.492,0,0,1,.139-.226c.044-.075.084-.153.14-.255m2.134-4.511a3.15,3.15,0,1,0-3.161-2.841,3.14,3.14,0,0,0,3.161,2.841" transform="translate(0 0)" fill="#0b428a"/>
      </g>
    </g>
    <g id="Grupo_999465" data-name="Grupo 999465" transform="translate(-7625.851 -5684.411)">
      <g id="Grupo_999463-2" data-name="Grupo 999463" clip-path="url(#clip-path)">
        <path id="Trazado_665927-2" data-name="Trazado 665927" d="M27.455,32.975c.112-.044.211-.09.315-.123a6.424,6.424,0,0,0,1.862-.924,7.377,7.377,0,0,0,1.131-.907A.205.205,0,0,1,30.955,31a1.653,1.653,0,0,1,.26.212c.707.608,1.408,1.222,2.124,1.819.234.2.524.324.762.515a19.751,19.751,0,0,0,3.987,2.313,11.49,11.49,0,0,0,2.837.923,8.194,8.194,0,0,0,3.344,0,6.434,6.434,0,0,0,1.343-.484,6.531,6.531,0,0,0,2.054-1.538,11.367,11.367,0,0,0,.78-1.05c.117-.163.213-.341.326-.506a8.953,8.953,0,0,0,1.094-2.462,17.741,17.741,0,0,0,.555-2.174,14.567,14.567,0,0,0,.22-3.123,20.549,20.549,0,0,0-.244-2.34,15.88,15.88,0,0,0-.484-2.119,15.9,15.9,0,0,0-.721-1.783,8.5,8.5,0,0,0-1.08-1.865,7.626,7.626,0,0,0-1.42-1.376,5.429,5.429,0,0,0-2.938-1.006,5.032,5.032,0,0,0-2.893.736,6.907,6.907,0,0,0-1.9,1.652c-.5.611-.93,1.279-1.4,1.916A13.7,13.7,0,0,1,35,21.923a8.59,8.59,0,0,1-1.679,1.082,1.585,1.585,0,0,0-.194.123c-.15.1-.183.076-.251-.092-.205-.508-.395-1.024-.639-1.513a6.071,6.071,0,0,0-1.166-1.6c-.1-.1-.144-.2-.026-.315A25.262,25.262,0,0,0,33.4,16.757,21.067,21.067,0,0,0,36.155,11.9a8.461,8.461,0,0,0,.56-1.988c.073-.59.2-1.176.23-1.768a5.927,5.927,0,0,0-.6-3.021,7.823,7.823,0,0,0-3.174-3.3A12.526,12.526,0,0,0,29.438.395,17.978,17.978,0,0,0,26.174,0,19.1,19.1,0,0,0,23.368.2,14.6,14.6,0,0,0,20.82.789a12.637,12.637,0,0,0-2.86,1.306,6.231,6.231,0,0,0-1.475,1.235,6.275,6.275,0,0,0-1.178,1.9,5.029,5.029,0,0,0,.114,3.96,6.608,6.608,0,0,0,2.151,2.652c.75.555,1.519,1.085,2.249,1.665a11.8,11.8,0,0,1,2.5,2.664c.3.45.549.936.826,1.4.075.126.016.165-.094.2A7.521,7.521,0,0,0,20.08,19.42c-.1.092-.211.244-.319.247s-.2-.163-.3-.253a26.441,26.441,0,0,0-2.721-2.209c-.686-.461-1.354-.955-2.069-1.365a24.188,24.188,0,0,0-2.36-1.172A11.973,11.973,0,0,0,10.376,14a9.135,9.135,0,0,0-3.32-.264A6.371,6.371,0,0,0,3.6,15.307a9.608,9.608,0,0,0-2.213,3.042,13.652,13.652,0,0,0-.637,1.667,13.8,13.8,0,0,0-.608,2.759,15.7,15.7,0,0,0-.122,2.758,16.6,16.6,0,0,0,.59,3.606,14.546,14.546,0,0,0,1.411,3.368,6.255,6.255,0,0,0,3.07,2.781,5.131,5.131,0,0,0,3.687.126,6.52,6.52,0,0,0,3.175-2.469c.433-.583.823-1.2,1.29-1.756A13.352,13.352,0,0,1,15.2,29.081a14.146,14.146,0,0,1,2.355-1.6c.108-.052.154-.011.186.08.067.189.122.383.2.566a7.8,7.8,0,0,0,1.558,2.512c.215.215.2.225.006.446a32.106,32.106,0,0,0-2.84,3.6c-.487.752-.912,1.543-1.363,2.318a14.5,14.5,0,0,0-1.024,2.33,9.36,9.36,0,0,0-.433,1.8,9.883,9.883,0,0,0-.178,1.685A6.15,6.15,0,0,0,14.1,45a7.141,7.141,0,0,0,1.308,2.11,10.085,10.085,0,0,0,2.99,2.164,10.912,10.912,0,0,0,2.3.842,16.738,16.738,0,0,0,8.646-.11,18.313,18.313,0,0,0,1.887-.708,8.325,8.325,0,0,0,1.306-.661,6.767,6.767,0,0,0,1.949-1.678,6.175,6.175,0,0,0,1.136-2.509,5.08,5.08,0,0,0-.378-2.974,6.067,6.067,0,0,0-1.658-2.247Q32.7,38.477,31.74,37.8a14.985,14.985,0,0,1-2.454-2.136,8.515,8.515,0,0,1-1.552-2.208,2.492,2.492,0,0,0-.139-.226c-.044-.075-.084-.153-.14-.255m-2.134-4.511a3.15,3.15,0,1,1,3.161-2.841,3.14,3.14,0,0,1-3.161,2.841" transform="translate(-0.001 0)" fill="#0b428a"/>
      </g>
    </g>
    <path id="Unión_6" data-name="Unión 6" d="M53.5,31.656l-13.3-13.3H28.81L38.995,28.54a2.2,2.2,0,0,1-3.116,3.116l-13.3-13.3H7.275L17.46,28.54a2.2,2.2,0,1,1-3.113,3.116l-13.7-13.7A2.2,2.2,0,0,1,0,16.282c0-.043,0-.087,0-.131a2.206,2.206,0,0,1,1.33-2.024L14.318.673a2.2,2.2,0,0,1,3.171,3.06L7.628,13.947H23.038L35.853.673a2.2,2.2,0,0,1,3.171,3.06L29.163,13.947H40.657L53.469.673a2.2,2.2,0,0,1,3.171,3.06L46.778,13.947H58.973a2.2,2.2,0,0,1,0,4.405H46.426L56.613,28.54A2.2,2.2,0,0,1,53.5,31.656Z" transform="translate(-8271.288 -5695.443)" fill="#25ffff"/>
    <path id="Unión_11" data-name="Unión 11" d="M53.5.645l-13.3,13.3H28.809L38.995,3.76A2.2,2.2,0,0,0,35.879.645l-13.3,13.3H7.275L17.46,3.76A2.2,2.2,0,1,0,14.347.645l-13.7,13.7A2.2,2.2,0,0,0,0,16.019c0,.043,0,.087,0,.131a2.206,2.206,0,0,0,1.33,2.024L14.318,31.627a2.2,2.2,0,0,0,3.171-3.06L7.628,18.353H23.038L35.853,31.627a2.2,2.2,0,0,0,3.171-3.06L29.162,18.353H40.657L53.468,31.627a2.2,2.2,0,1,0,3.171-3.06L46.778,18.353H58.973a2.2,2.2,0,0,0,0-4.405H46.426L56.613,3.76A2.2,2.2,0,0,0,53.5.645Z" transform="translate(-7731.5 -5663.143) rotate(180)" fill="#25ffff"/>
    <path id="Unión_9" data-name="Unión 9" d="M53.5,31.656l-13.3-13.3H28.81L38.995,28.54a2.2,2.2,0,0,1-3.116,3.116l-13.3-13.3H7.275L17.46,28.54a2.2,2.2,0,1,1-3.113,3.116l-13.7-13.7A2.2,2.2,0,0,1,0,16.282c0-.043,0-.087,0-.131a2.206,2.206,0,0,1,1.33-2.024L14.318.673a2.2,2.2,0,0,1,3.171,3.06L7.628,13.947H23.038L35.853.673a2.2,2.2,0,0,1,3.171,3.06L29.163,13.947H40.657L53.469.673a2.2,2.2,0,0,1,3.171,3.06L46.778,13.947H58.973a2.2,2.2,0,0,1,0,4.405H46.426L56.613,28.54A2.2,2.2,0,0,1,53.5,31.656Z" transform="translate(-8021.704 -5695.443)" fill="#ff2121"/>
    <path id="Unión_12" data-name="Unión 12" d="M53.5.645l-13.3,13.3H28.809L38.995,3.76A2.2,2.2,0,0,0,35.879.645l-13.3,13.3H7.275L17.46,3.76A2.2,2.2,0,1,0,14.347.645l-13.7,13.7A2.2,2.2,0,0,0,0,16.019c0,.043,0,.087,0,.131a2.206,2.206,0,0,0,1.33,2.024L14.318,31.627a2.2,2.2,0,0,0,3.171-3.06L7.628,18.353H23.038L35.853,31.627a2.2,2.2,0,0,0,3.171-3.06L29.162,18.353H40.657L53.468,31.627a2.2,2.2,0,1,0,3.171-3.06L46.778,18.353H58.973a2.2,2.2,0,0,0,0-4.405H46.426L56.613,3.76A2.2,2.2,0,0,0,53.5.645Z" transform="translate(-7476.045 -5663.143) rotate(180)" fill="#ff2121"/>
    <path id="Unión_7" data-name="Unión 7" d="M53.5,31.656l-13.3-13.3H28.81L38.995,28.54a2.2,2.2,0,0,1-3.116,3.116l-13.3-13.3H7.275L17.46,28.54a2.2,2.2,0,1,1-3.113,3.116l-13.7-13.7A2.2,2.2,0,0,1,0,16.282c0-.043,0-.087,0-.131a2.206,2.206,0,0,1,1.33-2.024L14.318.673a2.2,2.2,0,0,1,3.171,3.06L7.628,13.947H23.038L35.853.673a2.2,2.2,0,0,1,3.171,3.06L29.163,13.947H40.657L53.469.673a2.2,2.2,0,0,1,3.171,3.06L46.778,13.947H58.973a2.2,2.2,0,0,1,0,4.405H46.426L56.613,28.54A2.2,2.2,0,0,1,53.5,31.656Z" transform="translate(-8271.288 -5650.768)" fill="#25ffff"/>
    <path id="Unión_10" data-name="Unión 10" d="M53.5.645l-13.3,13.3H28.809L38.995,3.76A2.2,2.2,0,0,0,35.879.645l-13.3,13.3H7.275L17.46,3.76A2.2,2.2,0,1,0,14.347.645l-13.7,13.7A2.2,2.2,0,0,0,0,16.019c0,.043,0,.087,0,.131a2.206,2.206,0,0,0,1.33,2.024L14.318,31.627a2.2,2.2,0,0,0,3.171-3.06L7.628,18.353H23.038L35.853,31.627a2.2,2.2,0,0,0,3.171-3.06L29.162,18.353H40.657L53.468,31.627a2.2,2.2,0,1,0,3.171-3.06L46.778,18.353H58.973a2.2,2.2,0,0,0,0-4.405H46.426L56.613,3.76A2.2,2.2,0,0,0,53.5.645Z" transform="translate(-7731.5 -5618.468) rotate(180)" fill="#25ffff"/>
    <path id="Unión_8" data-name="Unión 8" d="M53.5,31.656l-13.3-13.3H28.81L38.995,28.54a2.2,2.2,0,0,1-3.116,3.116l-13.3-13.3H7.275L17.46,28.54a2.2,2.2,0,1,1-3.113,3.116l-13.7-13.7A2.2,2.2,0,0,1,0,16.282c0-.043,0-.087,0-.131a2.206,2.206,0,0,1,1.33-2.024L14.318.673a2.2,2.2,0,0,1,3.171,3.06L7.628,13.947H23.038L35.853.673a2.2,2.2,0,0,1,3.171,3.06L29.163,13.947H40.657L53.469.673a2.2,2.2,0,0,1,3.171,3.06L46.778,13.947H58.973a2.2,2.2,0,0,1,0,4.405H46.426L56.613,28.54A2.2,2.2,0,0,1,53.5,31.656Z" transform="translate(-8021.704 -5650.768)" fill="#ff2121"/>
    <path id="Unión_13" data-name="Unión 13" d="M53.5.645l-13.3,13.3H28.809L38.995,3.76A2.2,2.2,0,0,0,35.879.645l-13.3,13.3H7.275L17.46,3.76A2.2,2.2,0,1,0,14.347.645l-13.7,13.7A2.2,2.2,0,0,0,0,16.019c0,.043,0,.087,0,.131a2.206,2.206,0,0,0,1.33,2.024L14.318,31.627a2.2,2.2,0,0,0,3.171-3.06L7.628,18.353H23.038L35.853,31.627a2.2,2.2,0,0,0,3.171-3.06L29.162,18.353H40.657L53.468,31.627a2.2,2.2,0,1,0,3.171-3.06L46.778,18.353H58.973a2.2,2.2,0,0,0,0-4.405H46.426L56.613,3.76A2.2,2.2,0,0,0,53.5.645Z" transform="translate(-7476.045 -5618.468) rotate(180)" fill="#ff2121"/>
    <g id="Rectángulo_345292" data-name="Rectángulo 345292" transform="translate(-8252 -5542)" fill="#fff" stroke="#707070" stroke-linecap="round" stroke-linejoin="round" stroke-width="1">
      <rect width="39" height="37" stroke="none"/>
      <rect x="0.5" y="0.5" width="38" height="36" fill="none"/>
    </g>
    <g id="Rectángulo_345293" data-name="Rectángulo 345293" transform="translate(-8246 -5532)" fill="#25ffff" stroke="#707070" stroke-width="1">
      <rect width="27" height="13" stroke="none"/>
      <rect x="0.5" y="0.5" width="26" height="12" fill="none"/>
    </g>
    <text id="Termostato" transform="translate(-8273 -5487)" fill="#0b428a" font-size="17" font-family="Roboto-Bold, Roboto" font-weight="700"><tspan x="0" y="0">Termostato</tspan></text>
    <path id="Unión_14" data-name="Unión 14" d="M12,59V26.55H0L19.5,0,39,26.55H30V59Z" transform="translate(-8133 -5558)" fill="#7ebfff"/>
    <path id="Unión_15" data-name="Unión 15" d="M11.744,58.725v-32.3H0L19.085,0,38.17,26.426H29.362v32.3Z" transform="translate(-7819.588 -5840.051) rotate(90)" fill="#ff9b9b"/>
    <path id="Unión_20" data-name="Unión 20" d="M12,84V37.8H0L19.5,0,39,37.8H30V84Z" transform="translate(-7904 -5460) rotate(-90)" fill="#03a9ff"/>
    <path id="Unión_18" data-name="Unión 18" d="M8.318,41.6V18.718H0L13.518,0,27.036,18.718H20.8V41.6Z" transform="translate(-7620.294 -5760.287) rotate(180)" fill="#ae0000"/>
    <text id="Refrigerante_en_estado_gaseoso" data-name="Refrigerante en
estado gaseoso" transform="translate(-8203 -5790)" fill="#0b428a" font-size="13" font-family="Roboto-Bold, Roboto" font-weight="700"><tspan x="0" y="0">Refrigerante en</tspan><tspan x="0" y="15">estado gaseoso</tspan></text>
    <text id="Refrigerante_en_estado_gaseoso-2" data-name="Refrigerante en
estado gaseoso" transform="translate(-7910 -5765)" fill="#0b428a" font-size="15" font-family="Roboto-Bold, Roboto" font-weight="700"><tspan x="0" y="0">Refrigerante en</tspan><tspan x="0" y="18">estado gaseoso</tspan></text>
    <text id="Refrigerante_en_estado_líquido" data-name="Refrigerante en
estado líquido" transform="translate(-7689 -5479)" fill="#0b428a" font-size="15" font-family="Roboto-Bold, Roboto" font-weight="700"><tspan x="0" y="0">Refrigerante en</tspan><tspan x="0" y="18">estado líquido</tspan></text>
    <text id="Refrigerante_en_estado_semi-gaseoso" data-name="Refrigerante en
estado semi-gaseoso" transform="translate(-8088 -5485)" fill="#0b428a" font-size="13" font-family="Roboto-Bold, Roboto" font-weight="700"><tspan x="0" y="0">Refrigerante en</tspan><tspan x="0" y="15">estado semi-gaseoso</tspan></text>
    <text id="_15_c" data-name="15°c" transform="translate(-8268 -5712)" fill="#0b428a" font-size="21" font-family="Roboto-BoldItalic, Roboto" font-weight="700" font-style="italic"><tspan x="0" y="0">15°c</tspan></text>
    <text id="_35_c" data-name="35°c" transform="translate(-7791 -5712)" fill="#0b428a" font-size="21" font-family="Roboto-BoldItalic, Roboto" font-weight="700" font-style="italic"><tspan x="0" y="0">35°c</tspan></text>
    <text id="_28_c" data-name="28°c" transform="translate(-8014 -5716)" fill="#0b428a" font-size="21" font-family="Roboto-BoldItalic, Roboto" font-weight="700" font-style="italic"><tspan x="0" y="0">28°c</tspan></text>
    <text id="_45_c" data-name="45°c" transform="translate(-7531 -5716)" fill="#0b428a" font-size="21" font-family="Roboto-BoldItalic, Roboto" font-weight="700" font-style="italic"><tspan x="0" y="0">45°c</tspan></text>
    <path id="Trazado_665929-2" data-name="Trazado 665929" d="M-8244.924-5855.246h-11.744v-42.087h332.779v11.744h-321.035Z" transform="translate(163.516 101.324)" fill="#ff9b9b"/>
    <path id="Trazado_665929-3" data-name="Trazado 665929" d="M-8066.671-5855.291h-11.746v-32.3h-49.915v-11.744h61.661Z" transform="translate(412.001 97.451)" fill="#ae0000"/>
    <path id="Unión_17" data-name="Unión 17" d="M4.637,67.534A4.692,4.692,0,0,1,0,62.789V21.269a4.693,4.693,0,0,1,4.637-4.746H21.38V0h7.876V16.523H46.373a4.693,4.693,0,0,1,4.637,4.746V62.789a4.692,4.692,0,0,1-4.637,4.745Zm0-4.745H46.373V51.406H4.637ZM46.373,36.778V21.269H29.256V36.778Zm-24.994,0V21.269H4.637V36.778Z" transform="translate(-7763.425 -5842.5)" fill="#0b428a"/>
    <path id="Trazado_665929-4" data-name="Trazado 665929" d="M-8049.826-5761.7H-8134v-11.744h72.43v-43.311h11.744Z" transform="translate(399.091 258.824)" fill="#ff4018"/>
    <path id="Trazado_665930" data-name="Trazado 665930" d="M-8049.041-5790.255h-155.625V-5802h155.625Z" transform="translate(264.2 285.916)" fill="#ff4018"/>
    <path id="Trazado_665931" data-name="Trazado 665931" d="M-8109.829-5758.76h-145.839v-57.99h11.749v46.246h134.09Z" transform="translate(166.017 257.356)" fill="#3695ff"/>
    <g id="Grupo_999467" data-name="Grupo 999467" transform="translate(-7784.863 -5540.272)">
      <path id="Unión_19" data-name="Unión 19" d="M0,29.5A29.5,29.5,0,1,1,56.247,41.961c-2.348,5.709-5.588,8.1-5.588,8.1h0A29.5,29.5,0,0,1,0,29.5ZM19.413,53.278a25.881,25.881,0,0,0,28.4-5.546q.187-.187.369-.377L30.925,28.537,48.233,11.7q-.208-.217-.421-.43a25.881,25.881,0,0,0-36.625,0l-.087.087,17.986,17.5L11.5,48.036A25.783,25.783,0,0,0,19.413,53.278Z" transform="translate(-0.137 0.273)" fill="#0b428a"/>
    </g>
    <path id="Unión_5" data-name="Unión 5" d="M331.474,465.536V12.021L2.656,115.914,0,107.516,95.1,77.467V8.945h48.45V62.159L340.282,0V465.536ZM103.914,74.683l30.829-9.741V17.756H103.914Z" transform="translate(-8275.854 -5909.682)" fill="#0b428a"/>
  </g>
</svg>
