<svg xmlns="http://www.w3.org/2000/svg" width="205" height="78.945" viewBox="0 0 205 78.945">
  <g id="Grupo_116083" data-name="Grupo 116083" transform="translate(13525.615 6320)">
    <rect id="Rectángulo_32748" data-name="Rectángulo 32748" width="205" height="78.945" rx="16" transform="translate(-13525.615 -6320)" fill="#fff"/>
    <g id="Grupo_83403" data-name="Grupo 83403" transform="translate(-13501.161 -6315.024)">
      <path id="Trazado_665858" data-name="Trazado 665858" d="M14.3,19.142H5.332L4.014,26.7h10.43l-.41,2.3H.864L4.57,7.672H17.593l-.41,2.3H6.914l-1.187,6.87h8.965Z" transform="translate(48.546 -7.672)" fill="#12263f"/>
      <path id="Trazado_665859" data-name="Trazado 665859" d="M5.713,13.136l-.381,2.007A6.249,6.249,0,0,1,10.2,12.857a3.932,3.932,0,0,1,3.311,1.553,6.032,6.032,0,0,1,.791,4.2L12.568,29H9.917L11.66,18.581a5.554,5.554,0,0,0,.015-1.332,2.19,2.19,0,0,0-2.417-2.092Q6.87,15.113,5.068,17.7L3.105,29H.454L3.208,13.15Z" transform="translate(-0.454 13.328)" fill="#12263f"/>
      <path id="Trazado_665860" data-name="Trazado 665860" d="M14.561,17.076H2.7l.41-2.358h11.88Zm-1.055,6.079H1.641l.41-2.344h11.88Z" transform="translate(20.546 15.328)" fill="#12263f"/>
      <path id="Trazado_665861" data-name="Trazado 665861" d="M10.679,29H7.954V10.938L2.49,12.945V10.484l7.764-2.915h.425Zm21.313-9.1q0,4.761-1.626,7.075a5.783,5.783,0,0,1-5.083,2.314,5.825,5.825,0,0,1-5.054-2.263q-1.641-2.263-1.7-6.76V16.651q0-4.7,1.626-6.987a5.827,5.827,0,0,1,5.1-2.285,5.88,5.88,0,0,1,5.068,2.2q1.626,2.2,1.67,6.8ZM29.282,16.2a9.93,9.93,0,0,0-.967-5.017,3.328,3.328,0,0,0-3.062-1.575,3.284,3.284,0,0,0-3.032,1.567,9.7,9.7,0,0,0-.981,4.819v4.336a10.089,10.089,0,0,0,1,5.1,3.321,3.321,0,0,0,3.04,1.648,3.276,3.276,0,0,0,2.981-1.553,9.724,9.724,0,0,0,1.018-4.893ZM48.838,19.9q0,4.761-1.626,7.075a5.783,5.783,0,0,1-5.083,2.314,5.825,5.825,0,0,1-5.054-2.263q-1.641-2.263-1.7-6.76V16.651q0-4.7,1.626-6.987a5.827,5.827,0,0,1,5.1-2.285,5.88,5.88,0,0,1,5.068,2.2q1.626,2.2,1.67,6.8ZM46.128,16.2a9.93,9.93,0,0,0-.967-5.017A3.328,3.328,0,0,0,42.1,9.605a3.284,3.284,0,0,0-3.032,1.567,9.7,9.7,0,0,0-.981,4.819v4.336a10.089,10.089,0,0,0,1,5.1,3.321,3.321,0,0,0,3.04,1.648,3.276,3.276,0,0,0,2.981-1.553,9.724,9.724,0,0,0,1.018-4.893Z" transform="translate(99.546 16.328)" fill="#12263f"/>
      <path id="Trazado_665862" data-name="Trazado 665862" d="M14.3,19.142H5.332L4.014,26.7h10.43l-.41,2.3H.864L4.57,7.672H17.593l-.41,2.3H6.914l-1.187,6.87h8.965Z" transform="translate(48.546 33.328)" fill="#12263f"/>
      <path id="Trazado_665863" data-name="Trazado 665863" d="M5.176,20.912l4.761-10.12h2.332L5.615,24H3.931L1.343,10.792H3.516Z" transform="translate(66.546 5.328)" fill="#12263f"/>
      <path id="Trazado_665864" data-name="Trazado 665864" d="M5.957,22.413a3.352,3.352,0,0,0,2.136-.69A3.28,3.28,0,0,0,9.338,19.85l2.087-.012a4.71,4.71,0,0,1-.995,2.271,5.552,5.552,0,0,1-2.045,1.6,5.548,5.548,0,0,1-2.527.537,4.714,4.714,0,0,1-2.789-.861,4.818,4.818,0,0,1-1.678-2.332,7.768,7.768,0,0,1-.366-3.363l.061-.61A8.758,8.758,0,0,1,2.2,13.673a6.422,6.422,0,0,1,2.295-2.338,5.7,5.7,0,0,1,3.125-.787,4.464,4.464,0,0,1,3.32,1.392,4.813,4.813,0,0,1,1.245,3.406l-2.063-.012A3.17,3.17,0,0,0,9.4,13.24a2.511,2.511,0,0,0-1.88-.848,3.522,3.522,0,0,0-2.863,1.282,6.714,6.714,0,0,0-1.422,3.687l-.037.317a10.587,10.587,0,0,0-.024,1.611,3.68,3.68,0,0,0,.806,2.258A2.588,2.588,0,0,0,5.957,22.413Z" transform="translate(67.546 44.328)" fill="#12263f"/>
      <path id="Trazado_665865" data-name="Trazado 665865" d="M5.625,14.535,1.567,13.218l1-2.107,4.072,1.653.747-5.092h2.2L8.555,12.706l4.438-1.58.278,2.327L8.657,14.784l2.153,4.028L8.936,20.1,7.017,15.853l-3.252,4.1-1.67-1.436Z" transform="translate(82.546 20.328)" fill="#12263f"/>
      <path id="Trazado_115165" data-name="Trazado 115165" d="M-9409.834-6245.213h32.857" transform="translate(9452.546 6281.041)" fill="none" stroke="#12263f" stroke-width="2"/>
    </g>
  </g>
</svg>
