<svg xmlns="http://www.w3.org/2000/svg" xmlns:xlink="http://www.w3.org/1999/xlink" width="100" height="100" viewBox="0 0 100 100">
  <defs>
    <clipPath id="clip-path">
      <rect id="Rect치ngulo_32715" data-name="Rect치ngulo 32715" width="99.709" height="75.396" fill="none"/>
    </clipPath>
  </defs>
  <g id="Grupo_83604" data-name="Grupo 83604" transform="translate(-328.309 -1580)">
    <g id="Grupo_83396" data-name="Grupo 83396" transform="translate(328.313 1592.623)">
      <g id="Grupo_83393" data-name="Grupo 83393" clip-path="url(#clip-path)">
        <path id="Trazado_115158" data-name="Trazado 115158" d="M22.6,12H70.117a10.619,10.619,0,0,1,10.6,10.6V31.77L100.6,20.288a4.239,4.239,0,0,1,6.359,3.671V70.683a4.239,4.239,0,0,1-6.359,3.671L80.715,62.873v9.174a10.619,10.619,0,0,1-10.6,10.6H22.6A10.619,10.619,0,0,1,12,72.047V22.6A10.619,10.619,0,0,1,22.6,12" transform="translate(-9.625 -9.624)" fill="#fc5692" fill-rule="evenodd"/>
        <path id="Trazado_115159" data-name="Trazado 115159" d="M79.964,79a10.625,10.625,0,0,1-9.848,6.686H22.6A10.619,10.619,0,0,1,12,75.091V25.639a10.625,10.625,0,0,1,6.686-9.848,10.525,10.525,0,0,0-.751,3.912V69.155a10.619,10.619,0,0,0,10.6,10.6H76.052A10.525,10.525,0,0,0,79.964,79" transform="translate(-9.625 -12.667)" fill="#fb3580" fill-rule="evenodd"/>
        <path id="Trazado_115160" data-name="Trazado 115160" d="M359.336,63.021l19.887-11.482a4.239,4.239,0,0,1,6.359,3.671v46.723a4.239,4.239,0,0,1-6.359,3.671L359.336,94.124Z" transform="translate(-288.246 -40.875)" fill="#8c9ba6" fill-rule="evenodd"/>
        <path id="Trazado_115161" data-name="Trazado 115161" d="M364.443,134.039v-37l-5.107,2.948v31.1Z" transform="translate(-288.246 -77.841)" fill="#7c8b96" fill-rule="evenodd"/>
        <path id="Trazado_115162" data-name="Trazado 115162" d="M155.3,120.745l-26.74,15.438a2.25,2.25,0,0,1-3.375-1.949V103.357a2.25,2.25,0,0,1,3.375-1.949l26.74,15.438a2.25,2.25,0,0,1,0,3.9" transform="translate(-100.42 -81.098)" fill="#f4f8f8" fill-rule="evenodd"/>
        <path id="Trazado_115163" data-name="Trazado 115163" d="M155.3,177.907l-26.74,15.438a2.25,2.25,0,0,1-3.375-1.949v-2.344l26.158-15.1a2.189,2.189,0,0,0,1.1-1.591l2.858,1.65a2.25,2.25,0,0,1,0,3.9" transform="translate(-100.42 -138.26)" fill="#e5ecf1" fill-rule="evenodd"/>
        <path id="Trazado_115164" data-name="Trazado 115164" d="M27.141,52.922V22.474L53.509,37.7ZM56.069,33.693,29.329,18.255a4.624,4.624,0,0,0-6.936,4V53.138a4.614,4.614,0,0,0,6.936,4L56.068,41.7a4.624,4.624,0,0,0,0-8.01ZM94.961,61.061a1.865,1.865,0,0,1-2.8,1.614l-18.7-10.8V23.517l18.7-10.8a1.865,1.865,0,0,1,2.8,1.615ZM68.717,62.424V12.973a8.234,8.234,0,0,0-8.224-8.224H12.973a8.234,8.234,0,0,0-8.225,8.224V62.424a8.233,8.233,0,0,0,8.224,8.224h47.52A8.234,8.234,0,0,0,68.717,62.424ZM96.4,8.609a6.543,6.543,0,0,0-6.613,0L73.465,18.035V12.973A12.988,12.988,0,0,0,60.492,0H12.973A12.988,12.988,0,0,0,0,12.973V62.424A12.987,12.987,0,0,0,12.973,75.4h47.52A12.987,12.987,0,0,0,73.465,62.424V57.361L89.79,66.788a6.613,6.613,0,0,0,9.919-5.727V14.336A6.546,6.546,0,0,0,96.4,8.609" fill-rule="evenodd"/>
      </g>
    </g>
    <rect id="Rect치ngulo_32884" data-name="Rect치ngulo 32884" width="100" height="100" transform="translate(328.309 1580)" fill="none"/>
  </g>
</svg>
