<svg xmlns="http://www.w3.org/2000/svg" width="762" height="122" viewBox="0 0 762 122">
  <g id="Grupo_116086" data-name="Grupo 116086" transform="translate(-419.167 -3568.5)">
    <rect id="Rectángulo_40388" data-name="Rectángulo 40388" width="762" height="122" rx="12" transform="translate(419.167 3568.5)" fill="#fff"/>
    <g id="Grupo_84171" data-name="Grupo 84171" transform="translate(-50.084 -37.363)">
      <path id="Trazado_665930" data-name="Trazado 665930" d="M13.286,27.887l3.179,3.062L14.429,32.6l-3.721-3.56a10.232,10.232,0,0,1-2.168.234A6.576,6.576,0,0,1,5.01,28.3a6.327,6.327,0,0,1-2.366-2.769,10.571,10.571,0,0,1-.93-4.094,19.471,19.471,0,0,1,.388-4.4,14.913,14.913,0,0,1,1.633-4.614,10.75,10.75,0,0,1,2.8-3.318,8.326,8.326,0,0,1,5.361-1.729,6.918,6.918,0,0,1,3.589,1,6.235,6.235,0,0,1,2.358,2.761,10.658,10.658,0,0,1,.923,4.094,15.727,15.727,0,0,1-.1,2.446l-.176,1.245Q17.578,25.235,13.286,27.887ZM16.04,15.9a7.249,7.249,0,0,0-1.011-4.5,3.878,3.878,0,0,0-3.252-1.626,5.556,5.556,0,0,0-3.508,1.055,7.985,7.985,0,0,0-2.534,3.333,17.171,17.171,0,0,0-1.252,5.618l-.044.952a9.459,9.459,0,0,0,.4,3.149,4.326,4.326,0,0,0,1.443,2.227A4.067,4.067,0,0,0,8.7,26.92a5.545,5.545,0,0,0,4.534-1.948,11.218,11.218,0,0,0,2.454-5.786A25.186,25.186,0,0,0,16.04,15.9Z" transform="translate(966 3622.5)" fill="#12263f"/>
      <path id="Trazado_665931" data-name="Trazado 665931" d="M5.684,13.136l-.337,1.772a6.2,6.2,0,0,1,4.819-2.051,4.89,4.89,0,0,1,2.556.688,3.377,3.377,0,0,1,1.443,1.86,6.544,6.544,0,0,1,5.259-2.549,4.191,4.191,0,0,1,3.5,1.6,5.7,5.7,0,0,1,.835,4.131L22.017,29H19.38l1.729-10.444a5.518,5.518,0,0,0,0-1.392q-.278-1.992-2.607-2.036a4,4,0,0,0-2.629.9,4.167,4.167,0,0,0-1.516,2.439L12.554,29H9.888l1.758-10.43a3.349,3.349,0,0,0-.491-2.5,2.582,2.582,0,0,0-2.117-.908A4.34,4.34,0,0,0,5.1,17.413L3.091,29H.439L3.193,13.15Zm25.591,1.4-4.058-1.317,1-2.107,4.072,1.653.747-5.092h2.2L34.2,12.706l4.438-1.58.278,2.327-4.614,1.332,2.153,4.028L34.585,20.1l-1.919-4.248-3.252,4.1-1.67-1.436ZM40.283,20.4a27.73,27.73,0,0,1,1.794-6.592,20.427,20.427,0,0,1,3.215-5.471,13.209,13.209,0,0,1,4.248-3.42l.4,1.816a15.2,15.2,0,0,0-3.948,4.475,23.027,23.027,0,0,0-2.542,6.563,31.564,31.564,0,0,0-.864,7.493,16.593,16.593,0,0,0,.784,5.339,8.427,8.427,0,0,0,2.263,3.64l-.659,1.641a10.578,10.578,0,0,1-3.743-5.024,19.379,19.379,0,0,1-1.179-7.617,23.158,23.158,0,0,1,.205-2.681Zm13.55-5.317a6.141,6.141,0,0,1,4.79-2.212,3.859,3.859,0,0,1,3.3,1.531,6.032,6.032,0,0,1,.8,4.211L61,29H58.345l1.743-10.43a5.565,5.565,0,0,0,.015-1.333,2.19,2.19,0,0,0-2.417-2.095q-2.432-.059-4.189,2.549L51.533,29H48.882L52.793,6.5h2.651Zm32.8,5.962H79.673l.4-2.212h6.958Zm6.255-5.962a6.141,6.141,0,0,1,4.79-2.212,3.859,3.859,0,0,1,3.3,1.531,6.032,6.032,0,0,1,.8,4.211L100.049,29H97.4l1.743-10.43a5.565,5.565,0,0,0,.015-1.333,2.19,2.19,0,0,0-2.417-2.095q-2.432-.059-4.189,2.549L90.586,29H87.935L91.846,6.5H94.5Zm40.84,5.347a27.181,27.181,0,0,1-1.86,6.76,20.327,20.327,0,0,1-3.23,5.376,13.431,13.431,0,0,1-4.167,3.333l-.41-1.685q5.024-3.779,6.709-12.144a31.563,31.563,0,0,0,.645-6.489q-.073-6.284-3.047-9.009l.688-1.641a9.711,9.711,0,0,1,2.776,3.04,14.334,14.334,0,0,1,1.67,4.409,22.58,22.58,0,0,1,.476,5.208,25.02,25.02,0,0,1-.22,2.681Z" transform="translate(1048.002 3622.5)" fill="#12263f"/>
      <path id="Trazado_665932" data-name="Trazado 665932" d="M17.124,22.2a8.5,8.5,0,0,1-3,5.244,8.393,8.393,0,0,1-5.706,1.846,6.644,6.644,0,0,1-3.457-.974,6.155,6.155,0,0,1-2.3-2.681,10.012,10.012,0,0,1-.908-3.875,12.418,12.418,0,0,1,.1-2.344l.249-1.758a13.267,13.267,0,0,1,3.376-7.581,8.521,8.521,0,0,1,6.541-2.7A6.38,6.38,0,0,1,16.787,9.32a7.719,7.719,0,0,1,1.86,5.222H15.908q-.19-4.482-3.516-4.834l-.483-.029a5.661,5.661,0,0,0-4.622,2.058,11.142,11.142,0,0,0-2.4,5.823L4.57,19.771l-.088,1.289a7.251,7.251,0,0,0,.959,4.285,3.618,3.618,0,0,0,3.113,1.648,5.483,5.483,0,0,0,3.684-1.069,7.115,7.115,0,0,0,2.219-3.677Zm10.649,7.09a6.829,6.829,0,0,1-3.538-.981A6.358,6.358,0,0,1,21.87,25.55a10.4,10.4,0,0,1-.952-4.094,19.445,19.445,0,0,1,.4-4.38,15.02,15.02,0,0,1,1.67-4.7A10.6,10.6,0,0,1,25.869,9.02a8.306,8.306,0,0,1,5.244-1.641A6.31,6.31,0,0,1,36.035,9.54a8.985,8.985,0,0,1,1.934,5.691,20.953,20.953,0,0,1-.315,3.911,16.192,16.192,0,0,1-1.333,4.409,11,11,0,0,1-2.439,3.413A8.388,8.388,0,0,1,27.773,29.293ZM35.259,15.9a7.391,7.391,0,0,0-1.011-4.475,3.848,3.848,0,0,0-3.267-1.648,5.556,5.556,0,0,0-3.508,1.055,7.985,7.985,0,0,0-2.534,3.333,17.171,17.171,0,0,0-1.252,5.618l-.044.952a7.454,7.454,0,0,0,1.025,4.5,3.816,3.816,0,0,0,3.237,1.685,5.643,5.643,0,0,0,4.592-2A11.356,11.356,0,0,0,34.922,19.1,26.236,26.236,0,0,0,35.259,15.9Zm9.053,4.746L42.861,29H40.107L43.813,7.672l7.119.015a6.961,6.961,0,0,1,5.083,1.75,5.507,5.507,0,0,1,1.538,4.651,6.64,6.64,0,0,1-2.439,4.819,8.846,8.846,0,0,1-5.735,1.758Zm.4-2.3,4.746.015a5.773,5.773,0,0,0,3.677-1.128A4.513,4.513,0,0,0,54.814,14.1a3.536,3.536,0,0,0-.747-2.922A3.76,3.76,0,0,0,51.211,10l-5.054-.015Z" transform="translate(507.833 3652.5)" fill="#12263f"/>
      <path id="Trazado_665933" data-name="Trazado 665933" d="M6.533,22.423,6.475,25l1-2.52,6.372-14.81h2.329l1.685,15L18,25.1l.923-2.944L24.375,7.672H27.2L18.853,29h-2.5L14.5,13.341l-.059-1.465-.615,1.7L7.031,29h-2.5L2.856,7.672H5.537Z" transform="translate(963 3672.5)" fill="#12263f"/>
      <path id="Trazado_665934" data-name="Trazado 665934" d="M6.533,22.423,6.475,25l1-2.52,6.372-14.81h2.329l1.685,15L18,25.1l.923-2.944L24.375,7.672H27.2L18.853,29h-2.5L14.5,13.341l-.059-1.465-.615,1.7L7.031,29h-2.5L2.856,7.672H5.537Z" transform="translate(1092 3672.5)" fill="#12263f"/>
      <path id="Trazado_665935" data-name="Trazado 665935" d="M14.443,17.076H2.227V14.718H14.443Zm0,6.079H2.227V20.812H14.443Z" transform="translate(580 3650.5)" fill="#12263f"/>
      <path id="Trazado_665936" data-name="Trazado 665936" d="M14.443,17.076H2.227V14.718H14.443Zm0,6.079H2.227V20.812H14.443Z" transform="translate(931 3650.5)" fill="#12263f"/>
      <path id="Trazado_665937" data-name="Trazado 665937" d="M14.443,17.076H2.227V14.718H14.443Zm0,6.079H2.227V20.812H14.443Z" transform="translate(1020 3650.5)" fill="#12263f"/>
      <path id="Trazado_665938" data-name="Trazado 665938" d="M17.124,22.2a8.5,8.5,0,0,1-3,5.244,8.393,8.393,0,0,1-5.706,1.846,6.644,6.644,0,0,1-3.457-.974,6.155,6.155,0,0,1-2.3-2.681,10.012,10.012,0,0,1-.908-3.875,12.418,12.418,0,0,1,.1-2.344l.249-1.758a13.267,13.267,0,0,1,3.376-7.581,8.521,8.521,0,0,1,6.541-2.7A6.38,6.38,0,0,1,16.787,9.32a7.719,7.719,0,0,1,1.86,5.222H15.908q-.19-4.482-3.516-4.834l-.483-.029a5.661,5.661,0,0,0-4.622,2.058,11.142,11.142,0,0,0-2.4,5.823L4.57,19.771l-.088,1.289a7.251,7.251,0,0,0,.959,4.285,3.618,3.618,0,0,0,3.113,1.648,5.483,5.483,0,0,0,3.684-1.069,7.115,7.115,0,0,0,2.219-3.677ZM29.238,29a3.55,3.55,0,0,1-.1-.835l.044-.835a6.5,6.5,0,0,1-4.629,1.963,4.736,4.736,0,0,1-3.406-1.326,4.012,4.012,0,0,1-1.194-3.245,4.879,4.879,0,0,1,2.2-3.933,9.385,9.385,0,0,1,5.413-1.414l2.769.015.176-1.26a2.9,2.9,0,0,0-.549-2.249,2.651,2.651,0,0,0-2.087-.857,4.088,4.088,0,0,0-2.41.667,2.837,2.837,0,0,0-1.282,1.838l-2.666.015A4.249,4.249,0,0,1,22.6,15.077a6.306,6.306,0,0,1,2.446-1.67,7.9,7.9,0,0,1,3.091-.564,5.255,5.255,0,0,1,3.853,1.5,4.657,4.657,0,0,1,1.157,3.831L31.86,26.026l-.073,1.128a5.529,5.529,0,0,0,.176,1.6L31.934,29Zm-4.16-2.051a4.624,4.624,0,0,0,2.41-.608,6.1,6.1,0,0,0,1.956-1.765l.571-3.267-2.007-.015a7.6,7.6,0,0,0-3.838.791,2.913,2.913,0,0,0-1.509,2.241,2.269,2.269,0,0,0,.52,1.853A2.477,2.477,0,0,0,25.078,26.949Zm20.3-11.382-1.245-.132a4.537,4.537,0,0,0-4.014,2.3L38.174,29H35.522l2.754-15.85,2.563-.015-.4,1.846a4.739,4.739,0,0,1,3.97-2.153,4.863,4.863,0,0,1,1.26.22Zm.63,5.479a12.917,12.917,0,0,1,1.4-4.5,7.317,7.317,0,0,1,2.549-2.827,5.909,5.909,0,0,1,3.289-.872,4.876,4.876,0,0,1,4.16,2.08l.527-1.772h2.432L57.729,28.663a7.711,7.711,0,0,1-2.461,4.856,6.932,6.932,0,0,1-5.024,1.736,7.134,7.134,0,0,1-3.083-.762,5.863,5.863,0,0,1-2.322-2.007l1.509-1.626a4.756,4.756,0,0,0,6.995,1.128,5.442,5.442,0,0,0,1.736-3.164l.293-1.406a6,6,0,0,1-4.526,1.875,4.661,4.661,0,0,1-2.571-.8,4.855,4.855,0,0,1-1.692-2.183,8.923,8.923,0,0,1-.659-3.186A16.375,16.375,0,0,1,46.011,21.046Zm2.563,1.5a5.576,5.576,0,0,0,.725,3.241,2.74,2.74,0,0,0,2.322,1.207,4.8,4.8,0,0,0,4.087-2.326L56.953,17.4a3.331,3.331,0,0,0-3.179-2.253A4.113,4.113,0,0,0,50.237,16.9,9.147,9.147,0,0,0,48.6,21.8ZM71.411,29a3.55,3.55,0,0,1-.1-.835l.044-.835a6.5,6.5,0,0,1-4.629,1.963,4.736,4.736,0,0,1-3.406-1.326,4.012,4.012,0,0,1-1.194-3.245,4.879,4.879,0,0,1,2.2-3.933,9.385,9.385,0,0,1,5.413-1.414l2.769.015.176-1.26a2.9,2.9,0,0,0-.549-2.249,2.651,2.651,0,0,0-2.087-.857,4.088,4.088,0,0,0-2.41.667,2.837,2.837,0,0,0-1.282,1.838l-2.666.015a4.249,4.249,0,0,1,1.084-2.468,6.306,6.306,0,0,1,2.446-1.67,7.9,7.9,0,0,1,3.091-.564,5.255,5.255,0,0,1,3.853,1.5,4.657,4.657,0,0,1,1.157,3.831l-1.289,7.852-.073,1.128a5.529,5.529,0,0,0,.176,1.6L74.106,29Zm-4.16-2.051a4.624,4.624,0,0,0,2.41-.608,6.1,6.1,0,0,0,1.956-1.765l.571-3.267-2.007-.015a7.6,7.6,0,0,0-3.838.791,2.913,2.913,0,0,0-1.509,2.241,2.269,2.269,0,0,0,.52,1.853A2.477,2.477,0,0,0,67.251,26.949Zm18.56-5.9a12.333,12.333,0,0,1,1.333-4.365,7.557,7.557,0,0,1,2.563-2.915,5.862,5.862,0,0,1,3.354-.923,4.951,4.951,0,0,1,4.072,1.934L98.657,6.5h2.651L97.412,29H95l.278-1.7a5.843,5.843,0,0,1-4.629,1.992,4.379,4.379,0,0,1-3.5-1.721,7.5,7.5,0,0,1-1.406-4.46A14.245,14.245,0,0,1,85.811,21.046Zm2.549,1.514a5.492,5.492,0,0,0,.747,3.248,2.7,2.7,0,0,0,2.314,1.185,4.789,4.789,0,0,0,4.087-2.312l1.26-7.315a3.289,3.289,0,0,0-3.193-2.224,4.018,4.018,0,0,0-2.761.944A6.1,6.1,0,0,0,89,18.851,11.4,11.4,0,0,0,88.359,22.56Zm20.1,6.733a5.714,5.714,0,0,1-4.629-2.183,7.511,7.511,0,0,1-1.406-5.435l.073-.63a10.545,10.545,0,0,1,1.4-4.307A8.136,8.136,0,0,1,106.7,13.8a6.545,6.545,0,0,1,3.574-.945,5.04,5.04,0,0,1,3.838,1.626,6.687,6.687,0,0,1,1.523,4.248,12.414,12.414,0,0,1-.059,1.9l-.161,1.216H105.059a5.354,5.354,0,0,0,.71,3.662,3.365,3.365,0,0,0,2.908,1.567,5.639,5.639,0,0,0,4.336-2.109l1.523,1.289a6.972,6.972,0,0,1-2.571,2.249A7.286,7.286,0,0,1,108.457,29.293Zm1.685-14.224a3.873,3.873,0,0,0-2.864,1.113,7.913,7.913,0,0,0-1.941,3.442l7.705.015.059-.234a4.336,4.336,0,0,0-.593-3.069A2.791,2.791,0,0,0,110.142,15.069Zm24.229.5-1.245-.132a4.537,4.537,0,0,0-4.014,2.3L127.163,29h-2.651l2.754-15.85,2.563-.015-.4,1.846a4.739,4.739,0,0,1,3.97-2.153,4.863,4.863,0,0,1,1.26.22Zm6.709,13.726a5.714,5.714,0,0,1-4.629-2.183,7.511,7.511,0,0,1-1.406-5.435l.073-.63a10.545,10.545,0,0,1,1.4-4.307,8.136,8.136,0,0,1,2.805-2.937,6.545,6.545,0,0,1,3.574-.945,5.04,5.04,0,0,1,3.838,1.626,6.687,6.687,0,0,1,1.523,4.248,12.414,12.414,0,0,1-.059,1.9l-.161,1.216H137.681a5.354,5.354,0,0,0,.71,3.662,3.365,3.365,0,0,0,2.908,1.567,5.639,5.639,0,0,0,4.336-2.109l1.523,1.289a6.972,6.972,0,0,1-2.571,2.249A7.286,7.286,0,0,1,141.079,29.293Zm1.685-14.224a3.873,3.873,0,0,0-2.864,1.113,7.913,7.913,0,0,0-1.941,3.442l7.705.015.059-.234a4.336,4.336,0,0,0-.593-3.069A2.791,2.791,0,0,0,142.764,15.069ZM151.069,29l2.4-13.755h-2.446l.366-2.095h2.432l.264-1.875a6.221,6.221,0,0,1,1.846-3.735,5.487,5.487,0,0,1,3.926-1.377,9.158,9.158,0,0,1,1.89.251l-.322,2.225A8.693,8.693,0,0,0,160,8.463a3.027,3.027,0,0,0-2.234.854,3.888,3.888,0,0,0-1.062,2.271l-.234,1.563h3.281l-.366,2.095h-3.281L153.721,29Zm18.823-13.433-1.245-.132a4.537,4.537,0,0,0-4.014,2.3L162.686,29h-2.651l2.754-15.85,2.563-.015-.4,1.846a4.739,4.739,0,0,1,3.97-2.153,4.863,4.863,0,0,1,1.26.22ZM172.9,29h-2.637l2.754-15.85h2.637Zm2.183-21.636a1.451,1.451,0,0,1,1.121.4,1.508,1.508,0,0,1,.447,1.135,1.563,1.563,0,0,1-1.567,1.6,1.46,1.46,0,0,1-1.128-.4,1.433,1.433,0,0,1-.425-1.113,1.662,1.662,0,0,1,.439-1.143A1.55,1.55,0,0,1,175.078,7.364Zm2.93,13.682a12.917,12.917,0,0,1,1.4-4.5,7.317,7.317,0,0,1,2.549-2.827,5.909,5.909,0,0,1,3.289-.872,4.876,4.876,0,0,1,4.16,2.08l.527-1.772h2.432l-2.637,15.513a7.711,7.711,0,0,1-2.461,4.856,6.932,6.932,0,0,1-5.024,1.736,7.134,7.134,0,0,1-3.083-.762,5.863,5.863,0,0,1-2.322-2.007l1.509-1.626a4.756,4.756,0,0,0,6.995,1.128,5.442,5.442,0,0,0,1.736-3.164l.293-1.406a6,6,0,0,1-4.526,1.875,4.661,4.661,0,0,1-2.571-.8,4.855,4.855,0,0,1-1.692-2.183,8.923,8.923,0,0,1-.659-3.186A16.375,16.375,0,0,1,178.008,21.046Zm2.563,1.5a5.576,5.576,0,0,0,.725,3.241,2.74,2.74,0,0,0,2.322,1.207,4.8,4.8,0,0,0,4.087-2.326L188.95,17.4a3.331,3.331,0,0,0-3.179-2.253,4.113,4.113,0,0,0-3.538,1.756,9.147,9.147,0,0,0-1.633,4.9Zm20,6.747a5.714,5.714,0,0,1-4.629-2.183,7.511,7.511,0,0,1-1.406-5.435l.073-.63a10.545,10.545,0,0,1,1.4-4.307,8.136,8.136,0,0,1,2.805-2.937,6.545,6.545,0,0,1,3.574-.945,5.04,5.04,0,0,1,3.838,1.626,6.687,6.687,0,0,1,1.523,4.248,12.414,12.414,0,0,1-.059,1.9l-.161,1.216H197.168a5.354,5.354,0,0,0,.71,3.662,3.365,3.365,0,0,0,2.908,1.567,5.639,5.639,0,0,0,4.336-2.109l1.523,1.289a6.972,6.972,0,0,1-2.571,2.249A7.286,7.286,0,0,1,200.566,29.293Zm1.685-14.224a3.873,3.873,0,0,0-2.864,1.113,7.913,7.913,0,0,0-1.941,3.442l7.705.015.059-.234a4.336,4.336,0,0,0-.593-3.069A2.791,2.791,0,0,0,202.251,15.069Zm16.875.5-1.245-.132a4.537,4.537,0,0,0-4.014,2.3L211.919,29h-2.651l2.754-15.85,2.563-.015-.4,1.846a4.739,4.739,0,0,1,3.97-2.153,4.863,4.863,0,0,1,1.26.22ZM228.369,29a3.55,3.55,0,0,1-.1-.835l.044-.835a6.5,6.5,0,0,1-4.629,1.963,4.736,4.736,0,0,1-3.406-1.326,4.012,4.012,0,0,1-1.194-3.245,4.879,4.879,0,0,1,2.2-3.933,9.385,9.385,0,0,1,5.413-1.414l2.769.015.176-1.26a2.9,2.9,0,0,0-.549-2.249,2.651,2.651,0,0,0-2.087-.857,4.088,4.088,0,0,0-2.41.667,2.837,2.837,0,0,0-1.282,1.838l-2.666.015a4.249,4.249,0,0,1,1.084-2.468,6.306,6.306,0,0,1,2.446-1.67,7.9,7.9,0,0,1,3.091-.564,5.255,5.255,0,0,1,3.853,1.5,4.657,4.657,0,0,1,1.157,3.831l-1.289,7.852-.073,1.128a5.529,5.529,0,0,0,.176,1.6l-.029.249Zm-4.16-2.051a4.624,4.624,0,0,0,2.41-.608,6.1,6.1,0,0,0,1.956-1.765l.571-3.267-2.007-.015a7.6,7.6,0,0,0-3.838.791,2.913,2.913,0,0,0-1.509,2.241,2.269,2.269,0,0,0,.52,1.853A2.477,2.477,0,0,0,224.209,26.949Zm17.139.146a4.022,4.022,0,0,0,2.563-.828,3.936,3.936,0,0,0,1.494-2.249l2.5-.015a5.652,5.652,0,0,1-1.194,2.725,6.9,6.9,0,0,1-5.486,2.563,5.656,5.656,0,0,1-3.347-1.033,5.782,5.782,0,0,1-2.014-2.8,9.322,9.322,0,0,1-.439-4.036l.073-.732a10.51,10.51,0,0,1,1.333-4.087A7.707,7.707,0,0,1,239.59,13.8a6.841,6.841,0,0,1,3.75-.945,5.356,5.356,0,0,1,3.984,1.67,5.775,5.775,0,0,1,1.494,4.087l-2.476-.015a3.8,3.8,0,0,0-.864-2.512,3.013,3.013,0,0,0-2.256-1.018,4.226,4.226,0,0,0-3.435,1.538,8.056,8.056,0,0,0-1.707,4.424l-.044.381a12.7,12.7,0,0,0-.029,1.934,4.416,4.416,0,0,0,.967,2.71A3.105,3.105,0,0,0,241.348,27.1ZM252.905,29h-2.637l2.754-15.85h2.637Zm2.183-21.636a1.451,1.451,0,0,1,1.121.4,1.508,1.508,0,0,1,.447,1.135,1.563,1.563,0,0,1-1.567,1.6,1.46,1.46,0,0,1-1.128-.4,1.433,1.433,0,0,1-.425-1.113,1.662,1.662,0,0,1,.439-1.143A1.55,1.55,0,0,1,255.088,7.364Zm10.957,5.493a5.713,5.713,0,0,1,3.413,1.084,6.16,6.16,0,0,1,2.1,2.908,9,9,0,0,1,.461,4.05l-.029.322a10.66,10.66,0,0,1-1.377,4.182,8.079,8.079,0,0,1-2.842,2.908,6.93,6.93,0,0,1-3.823.981,5.723,5.723,0,0,1-3.406-1.084,6.019,6.019,0,0,1-2.087-2.871,9.245,9.245,0,0,1-.469-4,10.8,10.8,0,0,1,1.333-4.424,8.267,8.267,0,0,1,2.864-3.04A6.848,6.848,0,0,1,266.045,12.857Zm-5.391,8.5a9,9,0,0,0,0,1.919,4.7,4.7,0,0,0,1.033,2.754,3.1,3.1,0,0,0,2.366,1.069,4.224,4.224,0,0,0,2.432-.652,5.473,5.473,0,0,0,1.875-2.1,8.852,8.852,0,0,0,.981-3.12,14.052,14.052,0,0,0,.044-2.271,4.879,4.879,0,0,0-1.069-2.8,3.169,3.169,0,0,0-2.373-1.084,4.32,4.32,0,0,0-3.486,1.611,7.96,7.96,0,0,0-1.772,4.336ZM268.3,6.5h3.384L267.2,10.807l-2.329-.007Zm10.942,6.636-.381,2.007a6.249,6.249,0,0,1,4.863-2.285,3.932,3.932,0,0,1,3.311,1.553,6.032,6.032,0,0,1,.791,4.2L286.1,29h-2.651l1.743-10.419a5.554,5.554,0,0,0,.015-1.332,2.19,2.19,0,0,0-2.417-2.092Q280.4,15.113,278.6,17.7L276.636,29h-2.651l2.754-15.85Z" transform="translate(619.999 3630.5)" fill="#12263f"/>
      <path id="Trazado_665939" data-name="Trazado 665939" d="M14.81,21.148a12.575,12.575,0,0,1-1.3,4.351A7.4,7.4,0,0,1,11,28.392a5.733,5.733,0,0,1-3.311.916,5.278,5.278,0,0,1-4.219-1.86L2.051,35.094H-.6L3.208,13.15l2.4-.015-.293,1.772a6.013,6.013,0,0,1,4.7-2.051,4.421,4.421,0,0,1,3.56,1.685,7.414,7.414,0,0,1,1.348,4.482,15.774,15.774,0,0,1-.073,1.816Zm-2.607-.3.073-1.229a5.566,5.566,0,0,0-.813-3.27,2.859,2.859,0,0,0-2.351-1.192,4.7,4.7,0,0,0-3.97,2.18L3.809,24.93A3.316,3.316,0,0,0,7.017,27.1a4.17,4.17,0,0,0,3.362-1.543A8.957,8.957,0,0,0,12.2,20.848Zm13.535-7.991a5.713,5.713,0,0,1,3.413,1.084,6.16,6.16,0,0,1,2.1,2.908,9,9,0,0,1,.461,4.05l-.029.322A10.66,10.66,0,0,1,30.308,25.4a8.079,8.079,0,0,1-2.842,2.908,6.93,6.93,0,0,1-3.823.981,5.723,5.723,0,0,1-3.406-1.084,6.019,6.019,0,0,1-2.087-2.871,9.245,9.245,0,0,1-.469-4,10.8,10.8,0,0,1,1.333-4.424,8.267,8.267,0,0,1,2.864-3.04A6.848,6.848,0,0,1,25.737,12.857Zm-5.391,8.5a9,9,0,0,0,0,1.919,4.7,4.7,0,0,0,1.033,2.754A3.1,3.1,0,0,0,23.745,27.1a4.224,4.224,0,0,0,2.432-.652,5.473,5.473,0,0,0,1.875-2.1,8.852,8.852,0,0,0,.981-3.12,14.052,14.052,0,0,0,.044-2.271,4.879,4.879,0,0,0-1.069-2.8,3.169,3.169,0,0,0-2.373-1.084,4.32,4.32,0,0,0-3.486,1.611,7.96,7.96,0,0,0-1.772,4.336ZM40.679,9.313,40,13.15h2.886l-.366,2.095H39.653L38,25.1a3.437,3.437,0,0,0-.015.7,1.117,1.117,0,0,0,1.245,1.143,7.594,7.594,0,0,0,1.289-.146l-.205,2.212a7.213,7.213,0,0,1-1.934.264,2.768,2.768,0,0,1-2.373-1.165,4.5,4.5,0,0,1-.615-3.054L37,15.245H34.2l.366-2.095h2.8l.674-3.838Zm9.507,19.98a5.714,5.714,0,0,1-4.629-2.183,7.511,7.511,0,0,1-1.406-5.435l.073-.63a10.545,10.545,0,0,1,1.4-4.307A8.136,8.136,0,0,1,48.428,13.8,6.545,6.545,0,0,1,52,12.857a5.04,5.04,0,0,1,3.838,1.626,6.687,6.687,0,0,1,1.523,4.248,12.414,12.414,0,0,1-.059,1.9l-.161,1.216H46.787a5.354,5.354,0,0,0,.71,3.662,3.365,3.365,0,0,0,2.908,1.567,5.639,5.639,0,0,0,4.336-2.109l1.523,1.289a6.972,6.972,0,0,1-2.571,2.249A7.286,7.286,0,0,1,50.186,29.293ZM51.87,15.069a3.873,3.873,0,0,0-2.864,1.113,7.913,7.913,0,0,0-1.941,3.442l7.705.015.059-.234a4.336,4.336,0,0,0-.593-3.069A2.791,2.791,0,0,0,51.87,15.069Zm12.275-1.934-.381,2.007a6.249,6.249,0,0,1,4.863-2.285,3.932,3.932,0,0,1,3.311,1.553,6.032,6.032,0,0,1,.791,4.2L71,29H68.35l1.743-10.419a5.554,5.554,0,0,0,.015-1.332,2.19,2.19,0,0,0-2.417-2.092Q65.3,15.113,63.5,17.7L61.538,29H58.887l2.754-15.85ZM81.782,27.1a4.022,4.022,0,0,0,2.563-.828A3.936,3.936,0,0,0,85.84,24.02l2.5-.015a5.652,5.652,0,0,1-1.194,2.725,6.9,6.9,0,0,1-5.486,2.563,5.656,5.656,0,0,1-3.347-1.033,5.782,5.782,0,0,1-2.014-2.8,9.322,9.322,0,0,1-.439-4.036l.073-.732a10.51,10.51,0,0,1,1.333-4.087A7.707,7.707,0,0,1,80.024,13.8a6.841,6.841,0,0,1,3.75-.945,5.356,5.356,0,0,1,3.984,1.67,5.775,5.775,0,0,1,1.494,4.087L86.777,18.6a3.8,3.8,0,0,0-.864-2.512,3.013,3.013,0,0,0-2.256-1.018,4.226,4.226,0,0,0-3.435,1.538,8.056,8.056,0,0,0-1.707,4.424l-.044.381a12.7,12.7,0,0,0-.029,1.934,4.416,4.416,0,0,0,.967,2.71A3.105,3.105,0,0,0,81.782,27.1ZM93.34,29H90.7l2.754-15.85h2.637ZM95.522,7.364a1.451,1.451,0,0,1,1.121.4A1.508,1.508,0,0,1,97.09,8.9a1.563,1.563,0,0,1-1.567,1.6,1.46,1.46,0,0,1-1.128-.4A1.433,1.433,0,0,1,93.97,8.99a1.662,1.662,0,0,1,.439-1.143A1.55,1.55,0,0,1,95.522,7.364ZM107.373,29a3.55,3.55,0,0,1-.1-.835l.044-.835a6.5,6.5,0,0,1-4.629,1.963,4.736,4.736,0,0,1-3.406-1.326,4.012,4.012,0,0,1-1.194-3.245,4.879,4.879,0,0,1,2.2-3.933,9.385,9.385,0,0,1,5.413-1.414l2.769.015.176-1.26a2.9,2.9,0,0,0-.549-2.249,2.651,2.651,0,0,0-2.087-.857,4.088,4.088,0,0,0-2.41.667,2.837,2.837,0,0,0-1.282,1.838l-2.666.015a4.249,4.249,0,0,1,1.084-2.468,6.306,6.306,0,0,1,2.446-1.67,7.9,7.9,0,0,1,3.091-.564,5.255,5.255,0,0,1,3.853,1.5,4.657,4.657,0,0,1,1.157,3.831L110,26.026l-.073,1.128a5.529,5.529,0,0,0,.176,1.6l-.029.249Zm-4.16-2.051a4.624,4.624,0,0,0,2.41-.608,6.1,6.1,0,0,0,1.956-1.765l.571-3.267-2.007-.015a7.6,7.6,0,0,0-3.838.791,2.913,2.913,0,0,0-1.509,2.241,2.269,2.269,0,0,0,.52,1.853A2.477,2.477,0,0,0,103.213,26.949Zm18.56-5.9a12.333,12.333,0,0,1,1.333-4.365,7.557,7.557,0,0,1,2.563-2.915,5.862,5.862,0,0,1,3.354-.923,4.951,4.951,0,0,1,4.072,1.934L134.619,6.5h2.651l-3.9,22.5h-2.417l.278-1.7a5.843,5.843,0,0,1-4.629,1.992,4.379,4.379,0,0,1-3.5-1.721,7.5,7.5,0,0,1-1.406-4.46A14.245,14.245,0,0,1,121.772,21.046Zm2.549,1.514a5.492,5.492,0,0,0,.747,3.248,2.7,2.7,0,0,0,2.314,1.185,4.789,4.789,0,0,0,4.087-2.312l1.26-7.315a3.289,3.289,0,0,0-3.193-2.224,4.018,4.018,0,0,0-2.761.944,6.1,6.1,0,0,0-1.816,2.765A11.4,11.4,0,0,0,124.321,22.56Zm20.1,6.733a5.714,5.714,0,0,1-4.629-2.183,7.511,7.511,0,0,1-1.406-5.435l.073-.63a10.545,10.545,0,0,1,1.4-4.307,8.136,8.136,0,0,1,2.805-2.937,6.545,6.545,0,0,1,3.574-.945,5.04,5.04,0,0,1,3.838,1.626,6.687,6.687,0,0,1,1.523,4.248,12.414,12.414,0,0,1-.059,1.9l-.161,1.216H141.021a5.354,5.354,0,0,0,.71,3.662,3.365,3.365,0,0,0,2.908,1.567,5.639,5.639,0,0,0,4.336-2.109l1.523,1.289a6.972,6.972,0,0,1-2.571,2.249A7.286,7.286,0,0,1,144.419,29.293ZM146.1,15.069a3.873,3.873,0,0,0-2.864,1.113,7.913,7.913,0,0,0-1.941,3.442L149,19.64l.059-.234a4.336,4.336,0,0,0-.593-3.069A2.791,2.791,0,0,0,146.1,15.069ZM155.991,29h-2.637l3.9-22.5H159.9Zm18.384-1.9a4.022,4.022,0,0,0,2.563-.828,3.936,3.936,0,0,0,1.494-2.249l2.5-.015a5.652,5.652,0,0,1-1.194,2.725,6.9,6.9,0,0,1-5.486,2.563,5.656,5.656,0,0,1-3.347-1.033,5.782,5.782,0,0,1-2.014-2.8,9.322,9.322,0,0,1-.439-4.036l.073-.732a10.51,10.51,0,0,1,1.333-4.087,7.707,7.707,0,0,1,2.754-2.805,6.841,6.841,0,0,1,3.75-.945,5.356,5.356,0,0,1,3.984,1.67,5.775,5.775,0,0,1,1.494,4.087L179.37,18.6a3.8,3.8,0,0,0-.864-2.512,3.013,3.013,0,0,0-2.256-1.018,4.226,4.226,0,0,0-3.435,1.538,8.056,8.056,0,0,0-1.707,4.424l-.044.381a12.7,12.7,0,0,0-.029,1.934,4.416,4.416,0,0,0,.967,2.71A3.105,3.105,0,0,0,174.375,27.1Zm17.49-14.238a5.713,5.713,0,0,1,3.413,1.084,6.16,6.16,0,0,1,2.1,2.908,9,9,0,0,1,.461,4.05l-.029.322a10.66,10.66,0,0,1-1.377,4.182,8.079,8.079,0,0,1-2.842,2.908,6.93,6.93,0,0,1-3.823.981,5.723,5.723,0,0,1-3.406-1.084,6.019,6.019,0,0,1-2.087-2.871,9.245,9.245,0,0,1-.469-4,10.8,10.8,0,0,1,1.333-4.424,8.267,8.267,0,0,1,2.864-3.04A6.848,6.848,0,0,1,191.865,12.857Zm-5.391,8.5a9,9,0,0,0,0,1.919,4.7,4.7,0,0,0,1.033,2.754,3.1,3.1,0,0,0,2.366,1.069,4.224,4.224,0,0,0,2.432-.652,5.473,5.473,0,0,0,1.875-2.1,8.852,8.852,0,0,0,.981-3.12,14.052,14.052,0,0,0,.044-2.271,4.879,4.879,0,0,0-1.069-2.8,3.169,3.169,0,0,0-2.373-1.084,4.32,4.32,0,0,0-3.486,1.611,7.96,7.96,0,0,0-1.772,4.336Zm18.56-8.218-.337,1.772a6.2,6.2,0,0,1,4.819-2.051,4.89,4.89,0,0,1,2.556.688,3.377,3.377,0,0,1,1.443,1.86,6.544,6.544,0,0,1,5.259-2.549,4.191,4.191,0,0,1,3.5,1.6,5.7,5.7,0,0,1,.835,4.131L221.367,29H218.73l1.729-10.444a5.518,5.518,0,0,0,0-1.392q-.278-1.992-2.607-2.036a4,4,0,0,0-2.629.9,4.167,4.167,0,0,0-1.516,2.439L211.9,29h-2.666L211,18.57a3.349,3.349,0,0,0-.491-2.5,2.582,2.582,0,0,0-2.117-.908,4.34,4.34,0,0,0-3.94,2.256L202.441,29H199.79l2.754-15.85Zm34.775,8.013a12.575,12.575,0,0,1-1.3,4.351,7.4,7.4,0,0,1-2.5,2.893,5.733,5.733,0,0,1-3.311.916,5.278,5.278,0,0,1-4.219-1.86l-1.421,7.646H224.4l3.809-21.943,2.4-.015-.293,1.772a6.013,6.013,0,0,1,4.7-2.051,4.421,4.421,0,0,1,3.56,1.685,7.414,7.414,0,0,1,1.348,4.482,15.774,15.774,0,0,1-.073,1.816Zm-2.607-.3.073-1.229a5.566,5.566,0,0,0-.813-3.27,2.859,2.859,0,0,0-2.351-1.192,4.7,4.7,0,0,0-3.97,2.18l-1.333,7.593a3.316,3.316,0,0,0,3.208,2.165,4.17,4.17,0,0,0,3.362-1.543A8.957,8.957,0,0,0,237.2,20.848Zm14.59-5.281-1.245-.132a4.537,4.537,0,0,0-4.014,2.3L244.585,29h-2.651l2.754-15.85,2.563-.015-.4,1.846a4.739,4.739,0,0,1,3.97-2.153,4.863,4.863,0,0,1,1.26.22ZM258.5,29.293a5.714,5.714,0,0,1-4.629-2.183,7.511,7.511,0,0,1-1.406-5.435l.073-.63a10.545,10.545,0,0,1,1.4-4.307,8.136,8.136,0,0,1,2.805-2.937,6.545,6.545,0,0,1,3.574-.945,5.04,5.04,0,0,1,3.838,1.626,6.687,6.687,0,0,1,1.523,4.248,12.414,12.414,0,0,1-.059,1.9l-.161,1.216H255.1a5.354,5.354,0,0,0,.71,3.662,3.365,3.365,0,0,0,2.908,1.567,5.639,5.639,0,0,0,4.336-2.109l1.523,1.289a6.972,6.972,0,0,1-2.571,2.249A7.286,7.286,0,0,1,258.5,29.293Zm1.685-14.224a3.873,3.873,0,0,0-2.864,1.113,7.913,7.913,0,0,0-1.941,3.442l7.705.015.059-.234a4.336,4.336,0,0,0-.593-3.069A2.791,2.791,0,0,0,260.186,15.069Zm16.831,9.639q.22-1.641-1.8-2.314l-2.754-.806q-3.486-1.2-3.369-3.984A4.389,4.389,0,0,1,271,14.168a6.808,6.808,0,0,1,4.255-1.311,5.676,5.676,0,0,1,3.9,1.4,4.431,4.431,0,0,1,1.443,3.567l-2.637-.015a2.473,2.473,0,0,0-.747-1.934,2.956,2.956,0,0,0-2.065-.776,3.86,3.86,0,0,0-2.373.674,2.467,2.467,0,0,0-1.069,1.729q-.19,1.377,1.685,2.007l1.333.366a8.583,8.583,0,0,1,3.867,1.831,3.5,3.5,0,0,1,1.055,2.8,4.444,4.444,0,0,1-.967,2.578,5.528,5.528,0,0,1-2.344,1.677,7.838,7.838,0,0,1-3.12.535,6.183,6.183,0,0,1-4.16-1.472,4.551,4.551,0,0,1-1.582-3.713l2.651.015a2.81,2.81,0,0,0,.85,2.139,3.247,3.247,0,0,0,2.329.806,4.568,4.568,0,0,0,2.5-.608A2.339,2.339,0,0,0,277.017,24.708Zm14.136-11.851a5.713,5.713,0,0,1,3.413,1.084,6.16,6.16,0,0,1,2.1,2.908,9,9,0,0,1,.461,4.05l-.029.322a10.66,10.66,0,0,1-1.377,4.182,8.079,8.079,0,0,1-2.842,2.908,6.93,6.93,0,0,1-3.823.981,5.723,5.723,0,0,1-3.406-1.084,6.019,6.019,0,0,1-2.087-2.871,9.245,9.245,0,0,1-.469-4,10.8,10.8,0,0,1,1.333-4.424,8.267,8.267,0,0,1,2.864-3.04A6.848,6.848,0,0,1,291.152,12.857Zm-5.391,8.5a9,9,0,0,0,0,1.919,4.7,4.7,0,0,0,1.033,2.754A3.1,3.1,0,0,0,289.16,27.1a4.224,4.224,0,0,0,2.432-.652,5.473,5.473,0,0,0,1.875-2.1,8.852,8.852,0,0,0,.981-3.12,14.052,14.052,0,0,0,.044-2.271,4.879,4.879,0,0,0-1.069-2.8,3.169,3.169,0,0,0-2.373-1.084,4.32,4.32,0,0,0-3.486,1.611,7.96,7.96,0,0,0-1.772,4.336Zm23.188-5.786-1.245-.132a4.537,4.537,0,0,0-4.014,2.3L301.743,29h-2.651l2.754-15.85,2.563-.015-.4,1.846a4.739,4.739,0,0,1,3.97-2.153,4.863,4.863,0,0,1,1.26.22Z" transform="translate(608.999 3676.5)" fill="#12263f"/>
      <path id="Trazado_665940" data-name="Trazado 665940" d="M3.357,22.083h8.179L11.194,24H.72L3.809,6.227H6.116Z" transform="translate(986 3636.5)" fill="#12263f"/>
      <path id="Trazado_665941" data-name="Trazado 665941" d="M7.373,24H5.151L7.764,9.01,3.04,10.67l.378-2.148,6.592-2.38H10.4Z" transform="translate(1112 3636.5)" fill="#12263f"/>
      <path id="Trazado_665942" data-name="Trazado 665942" d="M10.461,18.031h2.393l-.33,1.843h-2.38L9.424,24H7.2l.72-4.126H.061l.256-1.453L10.083,6.227H12.5Zm-7.5,0H8.24l1.587-8.74L9.473,9.8Z" transform="translate(1151 3636.5)" fill="#12263f"/>
      <path id="Trazado_665943" data-name="Trazado 665943" d="M14.27,18.336a7.085,7.085,0,0,1-2.5,4.37,6.994,6.994,0,0,1-4.755,1.538,5.537,5.537,0,0,1-2.881-.812A5.129,5.129,0,0,1,2.222,21.2a8.344,8.344,0,0,1-.757-3.229,10.348,10.348,0,0,1,.085-1.953l.208-1.465A11.056,11.056,0,0,1,4.572,8.235a7.1,7.1,0,0,1,5.45-2.252A5.317,5.317,0,0,1,13.989,7.6a6.433,6.433,0,0,1,1.55,4.352H13.257q-.159-3.735-2.93-4.028l-.4-.024A4.717,4.717,0,0,0,6.073,9.614a9.285,9.285,0,0,0-2,4.852L3.809,16.31l-.073,1.074a6.042,6.042,0,0,0,.8,3.571,3.015,3.015,0,0,0,2.594,1.373,4.569,4.569,0,0,0,3.07-.891,5.929,5.929,0,0,0,1.849-3.064Z" transform="translate(987 3686.5)" fill="#12263f"/>
      <path id="Trazado_665944" data-name="Trazado 665944" d="M14.27,18.336a7.085,7.085,0,0,1-2.5,4.37,6.994,6.994,0,0,1-4.755,1.538,5.537,5.537,0,0,1-2.881-.812A5.129,5.129,0,0,1,2.222,21.2a8.344,8.344,0,0,1-.757-3.229,10.348,10.348,0,0,1,.085-1.953l.208-1.465A11.056,11.056,0,0,1,4.572,8.235a7.1,7.1,0,0,1,5.45-2.252A5.317,5.317,0,0,1,13.989,7.6a6.433,6.433,0,0,1,1.55,4.352H13.257q-.159-3.735-2.93-4.028l-.4-.024A4.717,4.717,0,0,0,6.073,9.614a9.285,9.285,0,0,0-2,4.852L3.809,16.31l-.073,1.074a6.042,6.042,0,0,0,.8,3.571,3.015,3.015,0,0,0,2.594,1.373,4.569,4.569,0,0,0,3.07-.891,5.929,5.929,0,0,0,1.849-3.064Z" transform="translate(1116 3686.5)" fill="#12263f"/>
      <path id="Trazado_115165" data-name="Trazado 115165" d="M-9409.832-6245.213H-9092" transform="translate(10015.999 9917.713)" fill="none" stroke="#12263f" stroke-width="2"/>
      <path id="Trazado_116465" data-name="Trazado 116465" d="M-9409.832-6245.213h52.8" transform="translate(10368 9917.713)" fill="none" stroke="#12263f" stroke-width="2"/>
      <path id="Trazado_116466" data-name="Trazado 116466" d="M-9409.831-6245.213h142.441" transform="translate(10454.833 9917.713)" fill="none" stroke="#12263f" stroke-width="2"/>
    </g>
  </g>
</svg>
