<svg xmlns="http://www.w3.org/2000/svg" xmlns:xlink="http://www.w3.org/1999/xlink" width="534" height="554" viewBox="0 0 534 554">
  <defs>
    <clipPath id="clip-path">
      <rect id="Rectángulo_33443" data-name="Rectángulo 33443" width="155" height="160" transform="translate(0 0.449)" fill="none"/>
    </clipPath>
  </defs>
  <g id="Grupo_84231" data-name="Grupo 84231" transform="translate(-558.166 -499)">
    <g id="Elipse_4533" data-name="Elipse 4533" transform="translate(573.166 519)" fill="#ad84ff" stroke="#707070" stroke-width="1" opacity="0.5">
      <circle cx="253" cy="253" r="253" stroke="none"/>
      <circle cx="253" cy="253" r="252.5" fill="none"/>
    </g>
    <path id="Trazado_116486" data-name="Trazado 116486" d="M16607.068-11031.036h0l440.766,440.766" transform="translate(-16001.402 11583)" fill="none" stroke="#707070" stroke-width="10"/>
    <path id="Trazado_116487" data-name="Trazado 116487" d="M17047.834-11031.036h0l-440.766,440.766" transform="translate(-16001.402 11583)" fill="none" stroke="#707070" stroke-width="10"/>
    <circle id="Elipse_4522" data-name="Elipse 4522" cx="187" cy="187" r="187" transform="translate(635.166 585)" fill="#afafaf"/>
    <circle id="Elipse_4526" data-name="Elipse 4526" cx="51.5" cy="51.5" r="51.5" transform="translate(989.166 499)" fill="#afafaf"/>
    <circle id="Elipse_4527" data-name="Elipse 4527" cx="51.5" cy="51.5" r="51.5" transform="translate(558.166 950)" fill="#afafaf"/>
    <circle id="Elipse_4529" data-name="Elipse 4529" cx="51.5" cy="51.5" r="51.5" transform="translate(989.166 950)" fill="#afafaf"/>
    <circle id="Elipse_4531" data-name="Elipse 4531" cx="51.5" cy="51.5" r="51.5" transform="translate(558.166 499)" fill="#afafaf"/>
    <circle id="Elipse_4521" data-name="Elipse 4521" cx="167.5" cy="167.5" r="167.5" transform="translate(655.166 604)" fill="#fff"/>
    <g id="Grupo_84224" data-name="Grupo 84224" transform="translate(745.166 641.442)">
      <path id="Trazado_116471" data-name="Trazado 116471" d="M147.2,7.5l-4.7,9.4V69.253h14.106V7.5Z" transform="translate(-97.831 -5.03)" fill="#65636e"/>
      <rect id="Rectángulo_33435" data-name="Rectángulo 33435" width="9.404" height="61.753" transform="translate(39.967 2.47)" fill="#74727d"/>
      <path id="Trazado_116472" data-name="Trazado 116472" d="M237.2,7.5l-4.7,9.4V69.253h14.106V7.5Z" transform="translate(-159.619 -5.03)" fill="#65636e"/>
      <rect id="Rectángulo_33436" data-name="Rectángulo 33436" width="9.404" height="61.753" transform="translate(68.179 2.47)" fill="#74727d"/>
      <path id="Trazado_116473" data-name="Trazado 116473" d="M327.2,7.5l-4.7,9.4V69.253h14.106V7.5Z" transform="translate(-221.407 -5.03)" fill="#65636e"/>
      <rect id="Rectángulo_33437" data-name="Rectángulo 33437" width="9.404" height="61.753" transform="translate(96.391 2.47)" fill="#74727d"/>
      <rect id="Rectángulo_33438" data-name="Rectángulo 33438" width="61.126" height="56.424" transform="translate(77.583 64.223)" fill="#bfcfd6"/>
      <rect id="Rectángulo_33439" data-name="Rectángulo 33439" width="112.848" height="56.424" transform="translate(16.457 64.223)" fill="#cde3ea"/>
      <g id="Grupo_84223" data-name="Grupo 84223" transform="translate(0 0.108)">
        <g id="Grupo_84222" data-name="Grupo 84222" transform="translate(0 0)" clip-path="url(#clip-path)">
          <path id="Trazado_116474" data-name="Trazado 116474" d="M421.9,294.5h-9.4v9.4h9.4a4.7,4.7,0,1,0,0-9.4" transform="translate(-283.195 -202.173)" fill="#9295a1"/>
          <path id="Trazado_116475" data-name="Trazado 116475" d="M159.752,237.414a4.7,4.7,0,0,0-4.7-4.7h-9.4V204.5h-9.4v28.212H70.414V204.5h-9.4v28.212H42.2a4.7,4.7,0,1,0,0,9.4H155.05a4.7,4.7,0,0,0,4.7-4.7" transform="translate(-25.745 -140.386)" fill="#9ea5ad"/>
          <path id="Trazado_116476" data-name="Trazado 116476" d="M411.606,174.5,397.5,183.9l14.106,9.4h9.4V174.5Z" transform="translate(-272.897 -119.79)" fill="#cde3ea"/>
          <rect id="Rectángulo_33440" data-name="Rectángulo 33440" width="131.656" height="18.808" transform="translate(7.053 54.71)" fill="#e5f9ff"/>
          <path id="Trazado_116477" data-name="Trazado 116477" d="M426.606,354.5,412.5,378.01l14.106,23.51h9.4V354.5Z" transform="translate(-283.195 -243.365)" fill="#9ea5ad"/>
          <path id="Trazado_116478" data-name="Trazado 116478" d="M7.5,354.5v47.02H148.56v-9.4L134.454,378.01,148.56,363.9v-9.4Z" transform="translate(-5.149 -243.365)" fill="#aeb9bf"/>
          <path id="Trazado_116479" data-name="Trazado 116479" d="M396.606,384.5,382.5,398.606l14.106,14.106h9.4V384.5Z" transform="translate(-262.599 -263.961)" fill="#bfcfd6"/>
          <path id="Trazado_116480" data-name="Trazado 116480" d="M336.606,384.5,322.5,398.606l14.106,14.106h18.808V384.5Z" transform="translate(-221.407 -263.961)" fill="#cde3ea"/>
          <path id="Trazado_116481" data-name="Trazado 116481" d="M306.606,384.5,292.5,398.606l14.106,14.106h9.4V384.5Z" transform="translate(-200.811 -263.961)" fill="#9295a1"/>
          <path id="Trazado_116482" data-name="Trazado 116482" d="M106.9,384.5l-9.4,14.106,9.4,14.106h65.828V384.5Z" transform="translate(-66.937 -263.961)" fill="#9ea5ad"/>
          <path id="Trazado_116483" data-name="Trazado 116483" d="M66.606,384.5,52.5,398.606l14.106,14.106h9.4V384.5Z" transform="translate(-36.043 -263.961)" fill="#bfcfd6"/>
          <rect id="Rectángulo_33441" data-name="Rectángulo 33441" width="18.808" height="28.212" transform="translate(11.755 120.539)" fill="#cde3ea"/>
          <path id="Trazado_116484" data-name="Trazado 116484" d="M72.2,414.5a4.7,4.7,0,1,1-4.7,4.7,4.7,4.7,0,0,1,4.7-4.7" transform="translate(-46.341 -284.557)" fill="#9295a1"/>
          <path id="Trazado_116485" data-name="Trazado 116485" d="M402.2,414.5a4.7,4.7,0,1,1-4.7,4.7,4.7,4.7,0,0,1,4.7-4.7" transform="translate(-272.897 -284.557)" fill="#9295a1"/>
          <path id="Rectángulo_33442" data-name="Rectángulo 33442" d="M-5.149-7.5H126.507a2.351,2.351,0,0,1,2.351,2.351V23.063a2.351,2.351,0,0,1-2.351,2.351H-5.149A2.351,2.351,0,0,1-7.5,23.063V-5.149A2.351,2.351,0,0,1-5.149-7.5ZM124.156-2.8H-2.8v23.51H124.156Z" transform="translate(16.904 125.688)"/>
          <path id="Elipse_4521-2" data-name="Elipse 4521" d="M-.447-7.5A7.061,7.061,0,0,1,6.606-.447,7.061,7.061,0,0,1-.447,6.606,7.061,7.061,0,0,1-7.5-.447,7.061,7.061,0,0,1-.447-7.5Zm0,9.4A2.354,2.354,0,0,0,1.9-.447,2.354,2.354,0,0,0-.447-2.8,2.354,2.354,0,0,0-2.8-.447,2.354,2.354,0,0,0-.447,1.9Z" transform="translate(26.308 135.092)"/>
          <path id="Línea_214" data-name="Línea 214" d="M-5.149,25.414A2.351,2.351,0,0,1-7.5,23.063V-5.149A2.351,2.351,0,0,1-5.149-7.5,2.351,2.351,0,0,1-2.8-5.149V23.063A2.351,2.351,0,0,1-5.149,25.414Z" transform="translate(45.116 125.688)"/>
          <path id="Elipse_4522-2" data-name="Elipse 4522" d="M-.447-7.5A7.061,7.061,0,0,1,6.606-.447,7.061,7.061,0,0,1-.447,6.606,7.061,7.061,0,0,1-7.5-.447,7.061,7.061,0,0,1-.447-7.5Zm0,9.4A2.354,2.354,0,0,0,1.9-.447,2.354,2.354,0,0,0-.447-2.8,2.354,2.354,0,0,0-2.8-.447,2.354,2.354,0,0,0-.447,1.9Z" transform="translate(129.752 135.092)"/>
          <path id="Línea_215" data-name="Línea 215" d="M-5.149,25.414A2.351,2.351,0,0,1-7.5,23.063V-5.149A2.351,2.351,0,0,1-5.149-7.5,2.351,2.351,0,0,1-2.8-5.149V23.063A2.351,2.351,0,0,1-5.149,25.414Z" transform="translate(120.348 125.688)"/>
          <path id="Línea_216" data-name="Línea 216" d="M-5.149,6.606A2.351,2.351,0,0,1-7.5,4.255v-9.4A2.351,2.351,0,0,1-5.149-7.5,2.351,2.351,0,0,1-2.8-5.149v9.4A2.351,2.351,0,0,1-5.149,6.606Z" transform="translate(143.858 106.88)"/>
          <path id="Línea_217" data-name="Línea 217" d="M-5.149,16.01A2.351,2.351,0,0,1-7.5,13.659V-5.149A2.351,2.351,0,0,1-5.149-7.5,2.351,2.351,0,0,1-2.8-5.149V13.659A2.351,2.351,0,0,1-5.149,16.01Z" transform="translate(143.858 78.667)"/>
          <path id="Línea_218" data-name="Línea 218" d="M-5.149,16.01A2.351,2.351,0,0,1-7.5,13.659V-5.149A2.351,2.351,0,0,1-5.149-7.5,2.351,2.351,0,0,1-2.8-5.149V13.659A2.351,2.351,0,0,1-5.149,16.01Z" transform="translate(21.606 78.667)"/>
          <path id="Trazado_116486-2" data-name="Trazado 116486" d="M152.815,378.126H2.351A2.351,2.351,0,0,1,0,375.775v-47.02A2.351,2.351,0,0,1,2.351,326.4H14.106v-7.053a2.351,2.351,0,1,1,4.7,0v9.4a2.351,2.351,0,0,1-2.351,2.351H4.7v42.318H150.464V331.106H25.861a2.351,2.351,0,1,1,0-4.7H152.815a2.351,2.351,0,0,1,2.351,2.351v47.02A2.351,2.351,0,0,1,152.815,378.126Z" transform="translate(0 -217.62)"/>
          <path id="Trazado_116487-2" data-name="Trazado 116487" d="M159.305,259.914H37.053a7.053,7.053,0,1,1,0-14.106H53.51V229.351a2.351,2.351,0,0,1,4.7,0v18.808a2.351,2.351,0,0,1-2.351,2.351H37.053a2.351,2.351,0,1,0,0,4.7H159.305a2.351,2.351,0,1,0,0-4.7H140.5a2.351,2.351,0,0,1-2.351-2.351V229.351a2.351,2.351,0,0,1,4.7,0v16.457h16.457a7.053,7.053,0,1,1,0,14.106Z" transform="translate(-20.596 -155.833)"/>
          <path id="Trazado_116488" data-name="Trazado 116488" d="M120.8,209.318H54.967a2.351,2.351,0,0,1-2.351-2.351V190.51H17.351A2.351,2.351,0,0,1,15,188.159V169.351A2.351,2.351,0,0,1,17.351,167h141.06a2.351,2.351,0,0,1,2.351,2.351v18.808a2.351,2.351,0,0,1-2.351,2.351H123.146v16.457A2.351,2.351,0,0,1,120.8,209.318Zm-63.477-4.7h61.126V188.159a2.351,2.351,0,0,1,2.351-2.351H156.06V171.7H19.7v14.106h91.689a2.351,2.351,0,1,1,0,4.7H57.318Z" transform="translate(-10.298 -114.641)"/>
          <path id="Trazado_116489" data-name="Trazado 116489" d="M231.159,57.051a2.351,2.351,0,0,1-2.351-2.351V4.7H214.7v50a2.351,2.351,0,0,1-4.7,0V2.351A2.351,2.351,0,0,1,212.351,0h18.808a2.351,2.351,0,0,1,2.351,2.351V54.7A2.351,2.351,0,0,1,231.159,57.051Z" transform="translate(-144.172 0.01)"/>
          <path id="Trazado_116490" data-name="Trazado 116490" d="M141.159,57.051a2.351,2.351,0,0,1-2.351-2.351V4.7H124.7v50a2.351,2.351,0,0,1-4.7,0V2.351A2.351,2.351,0,0,1,122.351,0h18.808a2.351,2.351,0,0,1,2.351,2.351V54.7A2.351,2.351,0,0,1,141.159,57.051Z" transform="translate(-82.384 0.01)"/>
          <path id="Trazado_116491" data-name="Trazado 116491" d="M321.159,57.051a2.351,2.351,0,0,1-2.351-2.351V4.7H304.7v50a2.351,2.351,0,1,1-4.7,0V2.351A2.351,2.351,0,0,1,302.351,0h18.808a2.351,2.351,0,0,1,2.351,2.351V54.7A2.351,2.351,0,0,1,321.159,57.051Z" transform="translate(-205.96 0.01)"/>
        </g>
      </g>
    </g>
    <path id="Trazado_665947" data-name="Trazado 665947" d="M15.551,23h-4.09V15.875H5.4V23H1.289V5.938H5.4v6.773h6.059V5.938h4.09ZM32.6,14.82a10.062,10.062,0,0,1-.926,4.418A6.842,6.842,0,0,1,29.045,22.2a7.326,7.326,0,0,1-3.885,1.037,7.429,7.429,0,0,1-3.867-1,6.831,6.831,0,0,1-2.631-2.865,9.772,9.772,0,0,1-.99-4.277v-.961a10.106,10.106,0,0,1,.92-4.424,6.825,6.825,0,0,1,2.637-2.959A7.805,7.805,0,0,1,29,6.734,6.948,6.948,0,0,1,31.646,9.67a9.816,9.816,0,0,1,.955,4.365Zm-4.184-.715a7.175,7.175,0,0,0-.85-3.861,2.725,2.725,0,0,0-2.432-1.318q-3.094,0-3.27,4.641l-.012,1.254a7.379,7.379,0,0,0,.832,3.855,2.721,2.721,0,0,0,2.473,1.348,2.688,2.688,0,0,0,2.4-1.324,7.178,7.178,0,0,0,.855-3.809Zm12.645,2.859H38.836V23H34.723V5.938h6.715a7.5,7.5,0,0,1,4.746,1.346,4.561,4.561,0,0,1,1.711,3.8,5.54,5.54,0,0,1-.721,2.95,5.115,5.115,0,0,1-2.256,1.9l3.563,6.889V23H44.074ZM38.836,13.8h2.6a2.335,2.335,0,0,0,1.764-.617,2.384,2.384,0,0,0,.592-1.721,2.412,2.412,0,0,0-.6-1.733A2.313,2.313,0,0,0,41.438,9.1h-2.6ZM64.629,23h-4.09L54.492,12.383V23H50.379V5.938h4.113l6.035,10.617V5.938h4.1ZM81.68,14.82a10.062,10.062,0,0,1-.926,4.418A6.842,6.842,0,0,1,78.123,22.2a7.326,7.326,0,0,1-3.885,1.037,7.429,7.429,0,0,1-3.867-1,6.831,6.831,0,0,1-2.631-2.865,9.772,9.772,0,0,1-.99-4.277v-.961a10.106,10.106,0,0,1,.92-4.424,6.825,6.825,0,0,1,2.637-2.959,7.805,7.805,0,0,1,7.775-.012A6.948,6.948,0,0,1,80.725,9.67a9.816,9.816,0,0,1,.955,4.365ZM77.5,14.105a7.175,7.175,0,0,0-.85-3.861,2.725,2.725,0,0,0-2.432-1.318q-3.094,0-3.27,4.641l-.012,1.254a7.379,7.379,0,0,0,.832,3.855,2.721,2.721,0,0,0,2.473,1.348,2.688,2.688,0,0,0,2.4-1.324,7.178,7.178,0,0,0,.855-3.809ZM92.6,18.465a1.69,1.69,0,0,0-.639-1.406,7.938,7.938,0,0,0-2.244-1.043,21.53,21.53,0,0,1-2.625-1.043q-3.316-1.629-3.316-4.477a4.014,4.014,0,0,1,.826-2.5,5.344,5.344,0,0,1,2.338-1.687,9.1,9.1,0,0,1,3.4-.6,7.958,7.958,0,0,1,3.3.656,5.223,5.223,0,0,1,2.268,1.869A4.881,4.881,0,0,1,96.715,11h-4.1a2.063,2.063,0,0,0-.639-1.617,2.489,2.489,0,0,0-1.729-.574,2.807,2.807,0,0,0-1.74.486,1.432,1.432,0,0,0,.064,2.426,8.867,8.867,0,0,0,2.473,1.1,15.147,15.147,0,0,1,2.906,1.225,4.884,4.884,0,0,1,2.766,4.395,4.166,4.166,0,0,1-1.687,3.516A7.506,7.506,0,0,1,90.4,23.234a9.184,9.184,0,0,1-3.756-.744,5.663,5.663,0,0,1-2.531-2.039,5.313,5.313,0,0,1-.85-2.982h4.125A2.617,2.617,0,0,0,88.1,19.49a3.351,3.351,0,0,0,2.3.65A2.647,2.647,0,0,0,92.01,19.7,1.45,1.45,0,0,0,92.6,18.465ZM109.184,23h-4.1V5.938h4.1Zm17.109,0H122.2l-6.047-10.617V23h-4.113V5.938h4.113l6.035,10.617V5.938h4.1Zm2.6,0V5.938h5.5a8.085,8.085,0,0,1,4.066,1.025,7.208,7.208,0,0,1,2.818,2.895,8.739,8.739,0,0,1,1.025,4.189v.785a8.79,8.79,0,0,1-.99,4.2,7.239,7.239,0,0,1-2.789,2.906A7.907,7.907,0,0,1,134.508,23Zm4.113-13.887V19.836h1.43a3.2,3.2,0,0,0,2.719-1.26,6.173,6.173,0,0,0,.949-3.744v-.738a6.123,6.123,0,0,0-.949-3.727,3.256,3.256,0,0,0-2.766-1.254Zm24.785-3.176V17.105a6.419,6.419,0,0,1-.809,3.287,5.238,5.238,0,0,1-2.32,2.115,8.174,8.174,0,0,1-3.574.727,7.062,7.062,0,0,1-4.91-1.617,5.768,5.768,0,0,1-1.828-4.43V5.938h4.137V17.27q.07,2.8,2.6,2.8a2.518,2.518,0,0,0,1.934-.7,3.286,3.286,0,0,0,.656-2.285V5.938ZM169.16,18.465a1.69,1.69,0,0,0-.639-1.406,7.938,7.938,0,0,0-2.244-1.043,21.53,21.53,0,0,1-2.625-1.043q-3.316-1.629-3.316-4.477a4.014,4.014,0,0,1,.826-2.5A5.344,5.344,0,0,1,163.5,6.307a9.1,9.1,0,0,1,3.4-.6,7.958,7.958,0,0,1,3.3.656,5.223,5.223,0,0,1,2.268,1.869A4.881,4.881,0,0,1,173.273,11h-4.1a2.063,2.063,0,0,0-.639-1.617,2.489,2.489,0,0,0-1.729-.574,2.807,2.807,0,0,0-1.74.486,1.432,1.432,0,0,0,.064,2.426,8.867,8.867,0,0,0,2.473,1.1,15.147,15.147,0,0,1,2.906,1.225,4.884,4.884,0,0,1,2.766,4.395,4.166,4.166,0,0,1-1.687,3.516,7.506,7.506,0,0,1-4.629,1.277,9.184,9.184,0,0,1-3.756-.744,5.663,5.663,0,0,1-2.531-2.039,5.313,5.313,0,0,1-.85-2.982h4.125a2.617,2.617,0,0,0,.709,2.021,3.351,3.351,0,0,0,2.3.65,2.647,2.647,0,0,0,1.611-.439A1.45,1.45,0,0,0,169.16,18.465Zm19.617-9.352h-5.121V23h-4.113V9.113h-5.027V5.938h14.262Zm8.074,7.852h-2.227V23h-4.113V5.938h6.715a7.5,7.5,0,0,1,4.746,1.346,4.561,4.561,0,0,1,1.711,3.8,5.54,5.54,0,0,1-.721,2.95,5.115,5.115,0,0,1-2.256,1.9l3.563,6.889V23h-4.406ZM194.625,13.8h2.6a2.335,2.335,0,0,0,1.764-.617,2.384,2.384,0,0,0,.592-1.721,2.412,2.412,0,0,0-.6-1.733,2.313,2.313,0,0,0-1.758-.629h-2.6ZM210.551,23h-4.1V5.938h4.1Zm12.762-3.187h-5.637L216.691,23H212.3l6.258-17.062h3.867L228.727,23h-4.418Zm-4.652-3.176h3.668l-1.84-5.918Zm15.422,3.2h7.16V23H229.969V5.938h4.113Zm19.477-4.078H247.09v4.078h7.641V23H242.977V5.938h11.777V9.113H247.09v3.6h6.469Zm11.648,2.707a1.69,1.69,0,0,0-.639-1.406,7.938,7.938,0,0,0-2.244-1.043,21.53,21.53,0,0,1-2.625-1.043q-3.316-1.629-3.316-4.477a4.014,4.014,0,0,1,.826-2.5,5.344,5.344,0,0,1,2.338-1.687,9.1,9.1,0,0,1,3.4-.6,7.958,7.958,0,0,1,3.3.656,5.223,5.223,0,0,1,2.268,1.869A4.881,4.881,0,0,1,269.32,11h-4.1a2.063,2.063,0,0,0-.639-1.617,2.489,2.489,0,0,0-1.729-.574,2.807,2.807,0,0,0-1.74.486,1.432,1.432,0,0,0,.064,2.426,8.867,8.867,0,0,0,2.473,1.1,15.147,15.147,0,0,1,2.906,1.225,4.884,4.884,0,0,1,2.766,4.395,4.166,4.166,0,0,1-1.687,3.516A7.506,7.506,0,0,1,263,23.234a9.184,9.184,0,0,1-3.756-.744,5.663,5.663,0,0,1-2.531-2.039,5.313,5.313,0,0,1-.85-2.982h4.125a2.617,2.617,0,0,0,.709,2.021,3.351,3.351,0,0,0,2.3.65,2.647,2.647,0,0,0,1.611-.439A1.45,1.45,0,0,0,265.207,18.465Z" transform="translate(685.166 816)" fill="#12263f"/>
  </g>
</svg>
